<?xml version="1.0" encoding="UTF-8" standalone="no" ?>
<!DOCTYPE svg PUBLIC "-//W3C//DTD SVG 1.1//EN" "http://www.w3.org/Graphics/SVG/1.1/DTD/svg11.dtd">
<svg xmlns="http://www.w3.org/2000/svg" xmlns:xlink="http://www.w3.org/1999/xlink" version="1.1" width="550.580625" height="234.85135999999997" xml:space="preserve">
<desc>Created with Fabric.js 1.6.0-rc.1</desc>
<defs></defs>
  <g transform="translate(364.95 92.18) rotate(0.13) scale(2.2 2.2)">
   <text font-family="Neuropol" font-size="40" font-weight="normal" style="stroke: none; stroke-width: 1; stroke-dasharray: none; stroke-linecap: butt; stroke-linejoin: miter; stroke-miterlimit: 10; fill: #0b1987; fill-rule: nonzero; opacity: 1;" ><tspan x="-78.69" y="8.98" style="stroke: none; stroke-width: 0; stroke-dasharray: none; stroke-linecap: butt; stroke-linejoin: miter; stroke-miterlimit: 4; fill: #0b1987; fill-rule: ; opacity: 1;">K</tspan><tspan x="-50.53" y="8.98" style="stroke: none; stroke-width: 0; stroke-dasharray: none; stroke-linecap: butt; stroke-linejoin: miter; stroke-miterlimit: 4; fill: #0b1987; fill-rule: ; opacity: 1;">M</tspan><tspan x="-7.44" y="8.98" style="stroke: none; stroke-width: 0; stroke-dasharray: none; stroke-linecap: butt; stroke-linejoin: miter; stroke-miterlimit: 4; fill: #0b1987; fill-rule: ; opacity: 1;">F</tspan><tspan x="20.94" y="8.98" style="stroke: none; stroke-width: 0; stroke-dasharray: none; stroke-linecap: butt; stroke-linejoin: miter; stroke-miterlimit: 4; fill: #0b1987; fill-rule: ; opacity: 1;">S</tspan><tspan x="49.49" y="8.98" style="stroke: none; stroke-width: 0; stroke-dasharray: none; stroke-linecap: butt; stroke-linejoin: miter; stroke-miterlimit: 4; fill: #0b1987; fill-rule: ; opacity: 1;">L</tspan></text>
 </g>
<g style="stroke: none; stroke-width: 1; stroke-dasharray: none; stroke-linecap: butt; stroke-linejoin: miter; stroke-miterlimit: 10; fill: none; fill-rule: nonzero; opacity: 1;" transform="translate(10 10) scale(0.26 0.26)" >
  <path d="M 564.4 512.287 c 8.26 1.048 14.271 0.02 18.009 -2.977 l 58.665 -47.018 c -1.601 1.282 -3.644 2.18 -6.072 2.732 l 5.002 -4.01 c -15.15 12.143 -66.859 -8.633 -141.328 -60.55 c -3.311 -2.31 -6.63 -4.656 -9.957 -7.035 c -0.124 -0.089 -0.246 -0.175 -0.368 -0.264 a 1028.57 1028.57 0 0 1 -9.681 -7.015 l -0.689 -0.5 a 1154.082 1154.082 0 0 1 -9.444 -7.012 c -0.314 -0.236 -0.626 -0.467 -0.938 -0.703 a 1147.573 1147.573 0 0 1 -9.302 -7.064 c -0.351 -0.269 -0.7 -0.533 -1.052 -0.805 c -3.107 -2.387 -6.213 -4.8 -9.313 -7.231 c -0.401 -0.315 -0.804 -0.628 -1.203 -0.94 c -3.079 -2.419 -6.153 -4.86 -9.223 -7.32 c -0.403 -0.32 -0.804 -0.642 -1.205 -0.961 c -3.076 -2.47 -6.145 -4.957 -9.207 -7.458 l -1.16 -0.95 a 1310.49 1310.49 0 0 1 -9.151 -7.567 c -0.354 -0.294 -0.708 -0.587 -1.061 -0.884 a 1390.626 1390.626 0 0 1 -13.801 -11.687 c -0.354 -0.304 -0.705 -0.607 -1.06 -0.91 c -4.531 -3.897 -9.034 -7.82 -13.5 -11.76 c -0.39 -0.344 -0.78 -0.688 -1.169 -1.034 a 1377.644 1377.644 0 0 1 -21.597 -19.502 l -0.475 -0.436 a 1427.966 1427.966 0 0 1 -8.131 -7.576 c -0.339 -0.32 -0.683 -0.639 -1.02 -0.957 a 1279.646 1279.646 0 0 1 -7.728 -7.331 c -0.449 -0.431 -0.901 -0.861 -1.351 -1.292 a 1295.222 1295.222 0 0 1 -6.361 -6.14 c -0.427 -0.416 -0.849 -0.83 -1.276 -1.245 a 1263.237 1263.237 0 0 1 -5.568 -5.461 c -0.411 -0.406 -0.826 -0.812 -1.234 -1.217 c -1.83 -1.811 -3.644 -3.617 -5.443 -5.423 c -0.454 -0.454 -0.903 -0.909 -1.355 -1.363 c -1.42 -1.428 -2.833 -2.856 -4.235 -4.282 a 913.197 913.197 0 0 1 -4.944 -5.056 c -0.537 -0.553 -1.078 -1.105 -1.611 -1.657 a 986.5 986.5 0 0 1 -4.669 -4.854 c -0.013 -0.013 -0.025 -0.024 -0.035 -0.036 a 1028.724 1028.724 0 0 1 -8.656 -9.167 l -0.378 -0.409 a 972.922 972.922 0 0 1 -7.764 -8.435 a 826.077 826.077 0 0 1 -5.891 -6.547 c -0.282 -0.316 -0.569 -0.635 -0.849 -0.952 a 817.535 817.535 0 0 1 -5.19 -5.897 c -0.379 -0.435 -0.754 -0.868 -1.13 -1.302 a 743.018 743.018 0 0 1 -3.448 -4 c -0.388 -0.455 -0.782 -0.912 -1.168 -1.366 a 702.658 702.658 0 0 1 -4.251 -5.035 c -0.379 -0.453 -0.748 -0.903 -1.125 -1.355 a 578.204 578.204 0 0 1 -2.335 -2.819 c -0.413 -0.502 -0.814 -1 -1.223 -1.5 c -0.703 -0.86 -1.408 -1.72 -2.099 -2.576 c -0.441 -0.546 -0.87 -1.086 -1.306 -1.63 c -0.674 -0.841 -1.353 -1.684 -2.015 -2.52 c -0.864 -1.09 -1.72 -2.176 -2.564 -3.256 l -0.295 -0.377 l -0.38 -0.492 a 454.088 454.088 0 0 1 -2.436 -3.155 c -0.354 -0.462 -0.702 -0.922 -1.05 -1.382 a 522.402 522.402 0 0 1 -1.645 -2.175 c -0.475 -0.631 -0.939 -1.257 -1.404 -1.881 c -0.444 -0.598 -0.888 -1.195 -1.324 -1.788 a 404.586 404.586 0 0 1 -3.342 -4.604 l -0.213 -0.303 a 360.965 360.965 0 0 1 -2.956 -4.208 c -0.444 -0.639 -0.881 -1.274 -1.315 -1.909 c -0.268 -0.394 -0.542 -0.79 -0.806 -1.182 c -0.179 -0.265 -0.35 -0.522 -0.527 -0.786 a 329.178 329.178 0 0 1 -3.093 -4.689 c -0.158 -0.242 -0.318 -0.485 -0.472 -0.727 a 257.656 257.656 0 0 1 -4.108 -6.605 c -0.21 -0.35 -0.423 -0.7 -0.628 -1.047 c -0.572 -0.964 -1.13 -1.919 -1.672 -2.863 c -0.02 -0.035 -0.041 -0.068 -0.059 -0.102 a 188.994 188.994 0 0 1 -1.851 -3.304 a 167.03 167.03 0 0 1 -2.027 -3.826 c -0.079 -0.156 -0.163 -0.312 -0.241 -0.467 c -0.613 -1.2 -1.187 -2.37 -1.733 -3.519 l -0.303 -0.636 a 124.32 124.32 0 0 1 -1.415 -3.134 c -0.264 -0.606 -0.499 -1.19 -0.741 -1.78 c -0.25 -0.604 -0.507 -1.217 -0.736 -1.805 c -0.221 -0.566 -0.414 -1.109 -0.614 -1.66 c -0.216 -0.59 -0.438 -1.186 -0.631 -1.757 c -0.128 -0.377 -0.237 -0.739 -0.355 -1.108 a 63.24 63.24 0 0 1 -0.593 -1.939 c -0.108 -0.381 -0.205 -0.75 -0.302 -1.121 a 50.059 50.059 0 0 1 -0.661 -2.841 a 39.21 39.21 0 0 1 -0.28 -1.582 c -0.057 -0.358 -0.117 -0.72 -0.162 -1.068 a 33.887 33.887 0 0 1 -0.153 -1.531 c -0.026 -0.309 -0.06 -0.626 -0.075 -0.923 c -0.023 -0.466 -0.017 -0.905 -0.014 -1.349 c 0 -0.335 -0.011 -0.681 0.003 -1.005 c 0.018 -0.374 0.064 -0.723 0.101 -1.08 c 0.037 -0.382 0.065 -0.772 0.123 -1.135 c 0.049 -0.309 0.125 -0.594 0.19 -0.889 c 0.085 -0.396 0.167 -0.795 0.279 -1.168 c 0.156 -0.523 0.335 -1.029 0.542 -1.507 c 0.04 -0.091 0.084 -0.176 0.125 -0.264 c 0.212 -0.46 0.449 -0.9 0.71 -1.318 c 0.041 -0.063 0.075 -0.132 0.118 -0.194 c 0.288 -0.443 0.611 -0.857 0.957 -1.25 c 0.082 -0.092 0.166 -0.182 0.25 -0.273 c 0.364 -0.387 0.747 -0.76 1.167 -1.099 l -4.603 3.688 c 0.057 -0.145 0.095 -0.306 0.154 -0.448 c 0.029 -0.068 0.063 -0.134 0.095 -0.203 c 0.213 -0.48 0.455 -0.937 0.72 -1.374 c 0.049 -0.078 0.092 -0.162 0.141 -0.237 c 0.297 -0.462 0.626 -0.897 0.986 -1.306 c 0.07 -0.083 0.145 -0.16 0.219 -0.242 c 0.378 -0.408 0.778 -0.799 1.22 -1.151 l -58.667 47.018 c -0.437 0.35 -0.831 0.738 -1.206 1.14 a 8.56 8.56 0 0 0 -0.241 0.264 c -0.066 0.076 -0.14 0.144 -0.202 0.22 c -0.28 0.341 -0.536 0.703 -0.777 1.077 c -0.048 0.075 -0.089 0.155 -0.133 0.231 c -0.142 0.228 -0.284 0.455 -0.409 0.696 c -0.115 0.221 -0.215 0.455 -0.319 0.687 c -0.029 0.067 -0.064 0.131 -0.091 0.201 c -0.165 0.386 -0.315 0.783 -0.446 1.198 c -0.031 0.098 -0.045 0.21 -0.072 0.31 c -0.11 0.372 -0.193 0.766 -0.275 1.161 c -0.047 0.231 -0.12 0.44 -0.16 0.679 c -0.017 0.089 -0.018 0.191 -0.03 0.284 c -0.054 0.352 -0.082 0.723 -0.116 1.092 c -0.026 0.28 -0.073 0.542 -0.088 0.833 c -0.005 0.104 0.001 0.22 -0.001 0.327 c -0.013 0.336 -0.006 0.689 -0.003 1.037 c 0.001 0.305 -0.017 0.595 -0.004 0.91 c 0.007 0.146 0.029 0.305 0.038 0.453 c 0.02 0.332 0.051 0.674 0.082 1.017 c 0.027 0.291 0.036 0.566 0.07 0.863 c 0.024 0.211 0.07 0.438 0.1 0.653 c 0.047 0.348 0.102 0.699 0.161 1.055 c 0.04 0.242 0.064 0.468 0.109 0.714 c 0.056 0.299 0.135 0.617 0.197 0.922 c 0.077 0.365 0.152 0.732 0.238 1.108 c 0.042 0.176 0.068 0.34 0.112 0.519 c 0.101 0.419 0.232 0.86 0.348 1.292 c 0.096 0.355 0.184 0.707 0.29 1.073 c 0.032 0.114 0.055 0.219 0.089 0.333 c 0.167 0.564 0.369 1.154 0.557 1.735 c 0.113 0.349 0.212 0.688 0.335 1.045 c 0.017 0.049 0.03 0.096 0.046 0.145 c 0.229 0.667 0.498 1.363 0.754 2.05 c 0.144 0.384 0.269 0.751 0.42 1.143 c 0.01 0.026 0.018 0.05 0.029 0.075 c 0.155 0.398 0.342 0.821 0.508 1.226 c 0.321 0.79 0.636 1.573 0.99 2.389 l 0.056 0.13 c 0.448 1.03 0.938 2.086 1.441 3.158 c 0.102 0.216 0.203 0.433 0.308 0.651 c 0.099 0.208 0.192 0.412 0.294 0.621 c 0.452 0.936 0.931 1.891 1.426 2.86 c 0.113 0.222 0.235 0.452 0.352 0.677 c 0.284 0.548 0.562 1.094 0.857 1.65 a 188.547 188.547 0 0 0 3.034 5.493 c 0.531 0.926 1.078 1.864 1.637 2.808 c 0.205 0.344 0.419 0.694 0.627 1.041 c 0.319 0.537 0.636 1.069 0.967 1.61 c 0.07 0.115 0.147 0.234 0.218 0.351 c 0.392 0.639 0.794 1.286 1.199 1.932 c 0.303 0.485 0.603 0.969 0.912 1.458 c 0.393 0.618 0.795 1.244 1.198 1.871 c 0.256 0.395 0.5 0.784 0.759 1.183 c 0.089 0.136 0.184 0.274 0.273 0.412 c 0.455 0.7 0.928 1.408 1.399 2.116 c 0.343 0.519 0.683 1.034 1.034 1.556 c 0.453 0.674 0.921 1.356 1.386 2.037 c 0.329 0.482 0.647 0.956 0.981 1.441 c 0.066 0.097 0.135 0.194 0.201 0.29 c 0.221 0.317 0.448 0.639 0.671 0.96 c 0.551 0.791 1.107 1.584 1.674 2.386 c 0.361 0.511 0.729 1.024 1.096 1.539 c 0.292 0.409 0.578 0.813 0.875 1.226 c 0.135 0.188 0.28 0.381 0.416 0.571 c 0.609 0.84 1.23 1.688 1.854 2.539 c 0.262 0.356 0.513 0.708 0.777 1.065 l 0.407 0.545 c 0.356 0.481 0.72 0.966 1.081 1.449 c 0.355 0.476 0.702 0.946 1.063 1.426 c 0.203 0.271 0.417 0.547 0.623 0.819 c 0.372 0.494 0.752 0.991 1.13 1.486 c 0.283 0.372 0.558 0.739 0.845 1.112 c 0.271 0.354 0.551 0.713 0.824 1.066 c 0.391 0.506 0.78 1.013 1.177 1.522 c 0.204 0.262 0.401 0.52 0.606 0.784 c 0.36 0.462 0.731 0.932 1.096 1.396 c 0.422 0.539 0.844 1.074 1.271 1.615 c 0.146 0.184 0.287 0.366 0.433 0.551 c 0.466 0.588 0.946 1.184 1.419 1.776 c 0.393 0.492 0.783 0.982 1.181 1.477 l 0.399 0.501 c 0.433 0.536 0.881 1.08 1.319 1.62 c 0.582 0.717 1.161 1.433 1.751 2.153 c 0.127 0.153 0.246 0.304 0.374 0.457 c 0.337 0.412 0.686 0.828 1.026 1.241 c 0.718 0.871 1.438 1.74 2.168 2.619 c 0.206 0.248 0.405 0.492 0.613 0.741 c 0.312 0.373 0.637 0.751 0.951 1.124 c 0.838 1 1.684 2.003 2.537 3.009 c 0.289 0.338 0.565 0.672 0.854 1.012 c 0.188 0.222 0.387 0.447 0.576 0.669 a 670.411 670.411 0 0 0 4.459 5.178 l 0.081 0.095 l 0.014 0.014 a 798.775 798.775 0 0 0 5.251 5.972 c 0.198 0.224 0.388 0.443 0.587 0.667 c 0.167 0.189 0.346 0.382 0.513 0.571 a 879.734 879.734 0 0 0 5.859 6.515 c 0.112 0.125 0.218 0.246 0.333 0.371 c 0.642 0.705 1.294 1.416 1.943 2.123 c 0.483 0.527 0.962 1.054 1.447 1.582 c 0.99 1.078 1.995 2.161 3 3.245 l 0.968 1.047 c 0.121 0.129 0.239 0.257 0.36 0.389 c 0.618 0.664 1.25 1.333 1.875 1.999 c 0.739 0.791 1.476 1.577 2.223 2.369 c 0.598 0.634 1.206 1.273 1.808 1.907 c 0.879 0.929 1.756 1.856 2.646 2.788 l 0.427 0.449 c 0.383 0.401 0.774 0.804 1.158 1.204 c 1.082 1.128 2.164 2.255 3.259 3.389 l 1.822 1.877 a 915.33 915.33 0 0 0 3.107 3.187 c 0.351 0.358 0.696 0.715 1.049 1.076 c 0.26 0.265 0.528 0.533 0.788 0.798 c 1.51 1.533 3.031 3.072 4.565 4.617 c 0.34 0.339 0.673 0.679 1.013 1.019 c 1.861 1.868 3.742 3.741 5.639 5.62 l 0.445 0.442 a 1270.072 1270.072 0 0 0 14.266 13.889 c 0.223 0.214 0.441 0.428 0.662 0.641 c 1.905 1.825 3.831 3.639 5.75 5.456 c 0.959 0.908 1.906 1.819 2.869 2.723 a 1372.56 1372.56 0 0 0 9.37 8.737 c 0.045 0.042 0.092 0.082 0.137 0.123 c 3.523 3.254 7.071 6.491 10.634 9.712 c 1.051 0.949 2.111 1.888 3.164 2.834 c 2.529 2.272 5.061 4.542 7.607 6.794 c 0.286 0.253 0.568 0.51 0.853 0.762 c 0.655 0.579 1.32 1.144 1.978 1.722 c 3.46 3.046 6.931 6.069 10.415 9.075 c 1.242 1.071 2.481 2.14 3.724 3.207 c 4.182 3.581 8.373 7.14 12.578 10.653 l 0.359 0.305 c 3.474 2.9 6.953 5.776 10.436 8.628 c 0.862 0.707 1.729 1.396 2.593 2.101 c 2.588 2.108 5.176 4.215 7.767 6.291 c 1.354 1.085 2.707 2.146 4.061 3.221 c 2.102 1.672 4.205 3.353 6.306 5.004 c 1.567 1.229 3.133 2.433 4.701 3.651 c 1.805 1.403 3.612 2.821 5.415 4.205 c 0.08 0.063 0.16 0.124 0.242 0.186 c 2.125 1.632 4.244 3.231 6.365 4.837 c 1.366 1.034 2.731 2.086 4.095 3.109 c 2.303 1.729 4.594 3.418 6.89 5.113 c 1.177 0.872 2.358 1.761 3.532 2.623 c 2.54 1.862 5.067 3.683 7.597 5.506 c 0.924 0.664 1.854 1.351 2.777 2.009 a 984.247 984.247 0 0 0 10.297 7.276 c 54.295 37.859 98.261 60.488 123.79 63.717 z" style="stroke: none; stroke-width: 1; stroke-dasharray: none; stroke-linecap: butt; stroke-linejoin: miter; stroke-miterlimit: 10; fill: #b846b8; fill-rule: nonzero; opacity: 1;" transform="" stroke-linecap="round" />
  <path d="M 136.249 334.909 c -5.036 6.628 -7.151 12.349 -6.425 17.084 l 11.386 74.314 c -0.311 -2.027 -0.066 -4.245 0.67 -6.626 l 0.971 6.337 c -2.94 -19.191 40.906 -53.585 123.102 -92.117 c 3.656 -1.714 7.348 -3.415 11.071 -5.107 l 0.413 -0.187 c 3.608 -1.639 7.25 -3.263 10.915 -4.877 c 0.26 -0.114 0.519 -0.23 0.779 -0.346 c 3.573 -1.57 7.174 -3.127 10.795 -4.674 c 0.36 -0.153 0.717 -0.31 1.077 -0.462 c 3.568 -1.52 7.16 -3.027 10.768 -4.522 c 0.408 -0.169 0.814 -0.34 1.223 -0.51 c 3.621 -1.496 7.264 -2.979 10.92 -4.449 c 0.473 -0.189 0.943 -0.381 1.416 -0.57 a 1278.78 1278.78 0 0 1 10.95 -4.328 l 1.436 -0.563 c 3.675 -1.429 7.364 -2.843 11.063 -4.243 c 0.468 -0.176 0.934 -0.354 1.402 -0.531 c 3.7 -1.396 7.412 -2.776 11.129 -4.142 c 0.432 -0.159 0.862 -0.318 1.295 -0.476 a 1374.74 1374.74 0 0 1 17.022 -6.108 l 1.317 -0.462 c 5.642 -1.977 11.29 -3.915 16.935 -5.812 c 0.493 -0.166 0.986 -0.332 1.48 -0.496 a 1385.95 1385.95 0 0 1 12.806 -4.219 c 0.479 -0.155 0.955 -0.311 1.433 -0.464 a 1402.241 1402.241 0 0 1 14.063 -4.461 c 3.552 -1.104 7.093 -2.185 10.626 -3.254 c 0.447 -0.134 0.895 -0.272 1.34 -0.406 a 1306.59 1306.59 0 0 1 10.212 -3.026 c 0.598 -0.175 1.196 -0.351 1.795 -0.524 c 2.84 -0.826 5.674 -1.64 8.497 -2.44 c 0.574 -0.162 1.144 -0.32 1.716 -0.482 c 2.514 -0.708 5.02 -1.405 7.515 -2.091 c 0.557 -0.153 1.116 -0.309 1.671 -0.46 a 1095.46 1095.46 0 0 1 7.417 -2.002 c 0.621 -0.166 1.239 -0.327 1.859 -0.492 c 1.946 -0.516 3.89 -1.025 5.826 -1.526 a 1243.937 1243.937 0 0 1 6.85 -1.754 c 0.748 -0.188 1.496 -0.38 2.241 -0.566 a 941.45 941.45 0 0 1 6.539 -1.617 c 0.016 -0.005 0.032 -0.01 0.047 -0.013 c 4.129 -1.007 8.218 -1.977 12.267 -2.912 l 0.544 -0.124 c 3.647 -0.84 7.266 -1.653 10.843 -2.433 c 0.115 -0.026 0.23 -0.05 0.345 -0.074 a 869.47 869.47 0 0 1 8.614 -1.828 l 1.248 -0.259 a 802.31 802.31 0 0 1 14.583 -2.86 c 0.588 -0.109 1.181 -0.221 1.767 -0.329 c 2.181 -0.4 4.346 -0.791 6.488 -1.164 c 0.581 -0.102 1.154 -0.196 1.735 -0.295 c 1.206 -0.208 2.415 -0.416 3.608 -0.613 c 0.641 -0.106 1.273 -0.206 1.91 -0.31 c 1.096 -0.178 2.194 -0.358 3.28 -0.53 c 0.693 -0.109 1.376 -0.21 2.064 -0.317 c 1.066 -0.163 2.135 -0.329 3.19 -0.485 c 1.376 -0.203 2.744 -0.4 4.103 -0.592 l 0.475 -0.067 l 0.615 -0.084 c 1.327 -0.184 2.646 -0.362 3.95 -0.532 c 0.577 -0.076 1.148 -0.146 1.723 -0.219 c 0.906 -0.115 1.811 -0.229 2.705 -0.337 c 0.782 -0.096 1.558 -0.185 2.332 -0.275 c 0.739 -0.085 1.479 -0.171 2.209 -0.252 c 1.909 -0.211 3.801 -0.413 5.66 -0.592 l 0.367 -0.034 a 352.66 352.66 0 0 1 5.121 -0.456 c 0.775 -0.065 1.545 -0.125 2.312 -0.185 c 0.475 -0.036 0.954 -0.074 1.427 -0.107 c 0.318 -0.023 0.628 -0.042 0.943 -0.063 c 1.902 -0.13 3.771 -0.242 5.608 -0.335 c 0.287 -0.015 0.579 -0.032 0.865 -0.045 a 256.434 256.434 0 0 1 7.773 -0.255 c 0.407 -0.007 0.817 -0.017 1.22 -0.021 c 1.121 -0.013 2.228 -0.019 3.317 -0.017 h 0.117 c 1.283 0.004 2.546 0.021 3.787 0.049 c 1.488 0.034 2.922 0.089 4.327 0.157 c 0.174 0.01 0.352 0.016 0.524 0.024 c 1.346 0.069 2.646 0.159 3.914 0.259 l 0.703 0.056 c 1.175 0.102 2.313 0.215 3.421 0.341 c 0.657 0.074 1.279 0.163 1.912 0.248 c 0.648 0.086 1.308 0.168 1.933 0.265 c 0.6 0.092 1.167 0.197 1.742 0.299 c 0.62 0.108 1.246 0.213 1.839 0.332 c 0.392 0.079 0.759 0.165 1.138 0.247 c 0.673 0.146 1.338 0.296 1.976 0.457 c 0.383 0.096 0.752 0.197 1.122 0.298 c 0.583 0.16 1.151 0.325 1.704 0.496 c 0.367 0.116 0.732 0.231 1.086 0.352 c 0.522 0.176 1.02 0.359 1.51 0.548 c 0.339 0.129 0.682 0.258 1.006 0.395 c 0.488 0.203 0.948 0.417 1.402 0.632 c 0.281 0.132 0.571 0.262 0.837 0.397 c 0.415 0.212 0.792 0.438 1.176 0.662 c 0.29 0.167 0.596 0.331 0.868 0.504 c 0.315 0.203 0.595 0.418 0.885 0.628 c 0.313 0.224 0.637 0.442 0.922 0.674 c 0.243 0.197 0.451 0.405 0.675 0.609 c 0.3 0.271 0.604 0.542 0.871 0.825 c 0.376 0.397 0.725 0.805 1.035 1.224 c 0.059 0.08 0.11 0.16 0.166 0.239 c 0.293 0.415 0.555 0.839 0.785 1.274 c 0.034 0.067 0.077 0.131 0.11 0.199 c 0.239 0.471 0.436 0.958 0.604 1.454 c 0.039 0.116 0.075 0.234 0.111 0.352 c 0.154 0.51 0.285 1.026 0.368 1.561 c -0.299 -1.943 -0.596 -3.887 -0.894 -5.83 c 0.098 0.121 0.218 0.234 0.312 0.357 c 0.043 0.06 0.084 0.122 0.128 0.184 c 0.31 0.424 0.583 0.863 0.829 1.311 c 0.045 0.081 0.096 0.16 0.137 0.241 c 0.251 0.488 0.462 0.992 0.638 1.506 c 0.036 0.102 0.066 0.206 0.1 0.31 c 0.164 0.533 0.303 1.074 0.388 1.632 l -11.386 -74.315 a 11.473 11.473 0 0 0 -0.385 -1.615 c -0.035 -0.114 -0.069 -0.228 -0.108 -0.34 c -0.032 -0.094 -0.055 -0.192 -0.089 -0.285 a 11.314 11.314 0 0 0 -0.545 -1.212 c -0.04 -0.078 -0.089 -0.154 -0.132 -0.23 c -0.128 -0.237 -0.253 -0.473 -0.398 -0.702 c -0.135 -0.211 -0.287 -0.415 -0.437 -0.62 c -0.043 -0.059 -0.081 -0.121 -0.128 -0.179 a 13.451 13.451 0 0 0 -0.814 -0.986 c -0.069 -0.076 -0.16 -0.144 -0.232 -0.218 c -0.267 -0.28 -0.566 -0.549 -0.867 -0.818 c -0.176 -0.157 -0.32 -0.324 -0.508 -0.479 c -0.069 -0.058 -0.157 -0.11 -0.231 -0.167 c -0.277 -0.223 -0.585 -0.433 -0.888 -0.646 c -0.229 -0.163 -0.434 -0.335 -0.678 -0.493 c -0.088 -0.057 -0.191 -0.108 -0.282 -0.164 c -0.285 -0.179 -0.594 -0.35 -0.897 -0.522 c -0.263 -0.151 -0.506 -0.311 -0.785 -0.458 c -0.13 -0.067 -0.278 -0.128 -0.41 -0.194 c -0.297 -0.149 -0.609 -0.292 -0.921 -0.437 c -0.266 -0.123 -0.509 -0.253 -0.784 -0.372 c -0.194 -0.084 -0.414 -0.158 -0.615 -0.24 a 36.713 36.713 0 0 0 -0.993 -0.388 c -0.229 -0.086 -0.438 -0.179 -0.673 -0.262 c -0.286 -0.102 -0.602 -0.192 -0.897 -0.291 c -0.354 -0.117 -0.71 -0.235 -1.078 -0.348 c -0.174 -0.052 -0.328 -0.111 -0.505 -0.163 c -0.414 -0.121 -0.861 -0.229 -1.294 -0.344 c -0.355 -0.095 -0.703 -0.194 -1.072 -0.286 c -0.115 -0.029 -0.218 -0.061 -0.334 -0.089 c -0.572 -0.138 -1.184 -0.258 -1.781 -0.386 c -0.358 -0.077 -0.703 -0.16 -1.072 -0.232 c -0.052 -0.01 -0.098 -0.022 -0.149 -0.033 c -0.69 -0.135 -1.428 -0.25 -2.152 -0.372 c -0.404 -0.067 -0.786 -0.143 -1.199 -0.208 c -0.028 -0.003 -0.053 -0.009 -0.08 -0.013 c -0.422 -0.064 -0.881 -0.114 -1.314 -0.173 c -0.845 -0.116 -1.681 -0.236 -2.564 -0.336 l -0.14 -0.017 a 121.874 121.874 0 0 0 -3.456 -0.33 c -0.237 -0.02 -0.477 -0.041 -0.717 -0.06 c -0.229 -0.017 -0.453 -0.038 -0.686 -0.055 a 142.048 142.048 0 0 0 -3.189 -0.195 l -0.762 -0.034 c -0.617 -0.029 -1.228 -0.061 -1.858 -0.083 a 208.63 208.63 0 0 0 -2.313 -0.068 a 200.79 200.79 0 0 0 -3.846 -0.049 l -0.114 -0.002 c -1.068 -0.003 -2.154 0.001 -3.25 0.014 c -0.4 0.005 -0.811 0.016 -1.215 0.022 c -0.624 0.009 -1.245 0.017 -1.877 0.033 c -0.137 0.002 -0.278 0.01 -0.414 0.012 c -0.749 0.02 -1.511 0.046 -2.273 0.073 c -0.571 0.02 -1.14 0.038 -1.719 0.06 c -0.731 0.03 -1.475 0.067 -2.218 0.102 c -0.472 0.024 -0.93 0.041 -1.405 0.065 c -0.162 0.008 -0.329 0.021 -0.493 0.03 c -0.834 0.044 -1.683 0.1 -2.531 0.153 c -0.623 0.037 -1.237 0.075 -1.865 0.118 c -0.81 0.055 -1.634 0.119 -2.456 0.182 c -0.583 0.043 -1.152 0.082 -1.739 0.129 l -0.352 0.03 c -0.385 0.032 -0.779 0.068 -1.168 0.101 c -0.96 0.082 -1.926 0.166 -2.903 0.257 c -0.622 0.057 -1.252 0.119 -1.88 0.18 c -0.501 0.049 -0.994 0.094 -1.499 0.145 c -0.23 0.023 -0.471 0.052 -0.703 0.075 a 556.51 556.51 0 0 0 -3.127 0.336 c -0.438 0.048 -0.868 0.09 -1.31 0.14 l -0.676 0.08 c -0.595 0.067 -1.196 0.14 -1.795 0.211 c -0.591 0.07 -1.17 0.136 -1.767 0.208 c -0.336 0.041 -0.684 0.087 -1.021 0.13 c -0.613 0.076 -1.233 0.156 -1.852 0.235 c -0.463 0.059 -0.919 0.113 -1.385 0.175 c -0.441 0.058 -0.893 0.122 -1.336 0.181 c -0.634 0.085 -1.268 0.169 -1.906 0.257 c -0.328 0.046 -0.652 0.087 -0.981 0.133 c -0.581 0.081 -1.173 0.168 -1.758 0.252 l -2.034 0.293 l -0.693 0.099 c -0.742 0.11 -1.498 0.228 -2.248 0.342 c -0.623 0.093 -1.243 0.186 -1.87 0.284 c -0.213 0.033 -0.421 0.062 -0.633 0.095 c -0.681 0.106 -1.376 0.222 -2.063 0.332 c -0.912 0.145 -1.821 0.289 -2.74 0.44 c -0.195 0.033 -0.386 0.061 -0.582 0.094 c -0.525 0.087 -1.061 0.18 -1.588 0.269 c -1.113 0.186 -2.227 0.375 -3.352 0.569 c -0.318 0.054 -0.63 0.105 -0.949 0.16 c -0.478 0.083 -0.97 0.175 -1.449 0.261 c -1.285 0.226 -2.576 0.457 -3.874 0.693 c -0.438 0.081 -0.864 0.153 -1.304 0.233 c -0.286 0.052 -0.58 0.111 -0.867 0.165 a 746.117 746.117 0 0 0 -6.836 1.295 l -0.02 0.004 c -2.57 0.5 -5.175 1.025 -7.798 1.562 c -0.292 0.06 -0.577 0.115 -0.872 0.175 c -0.247 0.05 -0.504 0.108 -0.751 0.159 a 924.58 924.58 0 0 0 -8.571 1.816 c -0.164 0.037 -0.322 0.066 -0.489 0.103 c -0.93 0.203 -1.873 0.413 -2.81 0.622 c -0.697 0.153 -1.394 0.305 -2.093 0.461 c -1.428 0.319 -2.869 0.646 -4.311 0.976 c -0.465 0.106 -0.925 0.208 -1.391 0.315 a 43.15 43.15 0 0 1 -0.517 0.118 c -0.884 0.204 -1.78 0.416 -2.668 0.625 c -1.055 0.245 -2.105 0.489 -3.164 0.741 c -0.848 0.201 -1.705 0.407 -2.556 0.611 c -1.245 0.296 -2.485 0.593 -3.737 0.898 l -0.604 0.145 c -0.538 0.131 -1.082 0.269 -1.621 0.401 c -1.518 0.373 -3.035 0.747 -4.563 1.128 l -2.537 0.64 c -1.435 0.361 -2.87 0.727 -4.313 1.098 l -1.457 0.371 c -0.359 0.093 -0.726 0.191 -1.084 0.283 c -2.083 0.541 -4.176 1.089 -6.282 1.646 c -0.465 0.125 -0.925 0.243 -1.389 0.367 c -2.547 0.678 -5.11 1.37 -7.686 2.074 l -0.607 0.165 a 1184.832 1184.832 0 0 0 -19.16 5.41 c -0.296 0.086 -0.591 0.167 -0.887 0.253 c -2.531 0.737 -5.066 1.497 -7.6 2.251 c -1.266 0.376 -2.527 0.741 -3.792 1.124 a 1339.925 1339.925 0 0 0 -12.251 3.746 l -0.177 0.057 a 1320.943 1320.943 0 0 0 -13.727 4.354 c -1.348 0.435 -2.69 0.884 -4.036 1.323 a 1370.859 1370.859 0 0 0 -9.688 3.191 c -0.362 0.121 -0.726 0.237 -1.086 0.357 c -0.829 0.279 -1.65 0.572 -2.48 0.851 a 1424.695 1424.695 0 0 0 -13.067 4.482 c -1.547 0.541 -3.094 1.079 -4.638 1.623 a 1384.713 1384.713 0 0 0 -15.517 5.566 c -0.147 0.053 -0.296 0.104 -0.443 0.158 a 1361.338 1361.338 0 0 0 -12.688 4.724 c -1.044 0.394 -2.075 0.8 -3.117 1.196 c -3.119 1.188 -6.238 2.375 -9.331 3.581 c -1.617 0.629 -3.212 1.271 -4.821 1.906 c -2.499 0.985 -5.006 1.966 -7.485 2.96 c -1.85 0.742 -3.675 1.497 -5.513 2.244 c -2.118 0.862 -4.249 1.718 -6.35 2.586 c -0.094 0.039 -0.187 0.078 -0.281 0.119 c -2.477 1.024 -4.92 2.06 -7.372 3.093 c -1.579 0.665 -3.173 1.323 -4.739 1.993 c -2.648 1.128 -5.259 2.269 -7.875 3.408 c -1.342 0.584 -2.703 1.162 -4.037 1.749 a 1079.716 1079.716 0 0 0 -8.566 3.826 c -1.039 0.467 -2.097 0.93 -3.13 1.399 a 986.916 986.916 0 0 0 -11.449 5.28 c -59.938 28.1 -101.518 54.86 -117.08 75.355 z" style="stroke: none; stroke-width: 1; stroke-dasharray: none; stroke-linecap: butt; stroke-linejoin: miter; stroke-miterlimit: 10; fill: #b846b8; fill-rule: nonzero; opacity: 1;" transform="" stroke-linecap="round" />
  <path d="M 503.939 52.803 c -3.224 -7.675 -7.118 -12.368 -11.583 -14.107 L 422.305 11.4 c 1.91 0.745 3.708 2.064 5.403 3.893 l -5.975 -2.327 c 18.092 7.049 25.954 62.218 18.226 152.668 c -0.344 4.022 -0.716 8.071 -1.113 12.141 c -0.016 0.15 -0.028 0.3 -0.043 0.451 a 1141.65 1141.65 0 0 1 -1.234 11.891 c -0.031 0.283 -0.061 0.565 -0.09 0.848 c -0.427 3.879 -0.88 7.776 -1.351 11.686 c -0.046 0.388 -0.091 0.775 -0.139 1.164 c -0.468 3.85 -0.958 7.713 -1.468 11.586 c -0.057 0.438 -0.112 0.875 -0.17 1.314 a 1246.77 1246.77 0 0 1 -1.606 11.682 l -0.214 1.512 c -0.556 3.875 -1.134 7.759 -1.727 11.646 l -0.231 1.524 c -0.6 3.897 -1.22 7.799 -1.856 11.702 c -0.081 0.493 -0.159 0.986 -0.241 1.48 c -0.641 3.902 -1.302 7.806 -1.978 11.708 l -0.234 1.36 a 1383.677 1383.677 0 0 1 -3.223 17.796 l -0.257 1.371 a 1391.772 1391.772 0 0 1 -3.436 17.572 c -0.103 0.511 -0.205 1.021 -0.31 1.53 a 1368.215 1368.215 0 0 1 -3.063 14.673 c -0.989 4.614 -2 9.212 -3.028 13.78 l -0.141 0.63 a 1427.02 1427.02 0 0 1 -2.494 10.829 c -0.106 0.454 -0.211 0.911 -0.318 1.362 c -0.818 3.473 -1.647 6.923 -2.485 10.357 l -0.443 1.816 c -0.705 2.873 -1.418 5.733 -2.136 8.578 c -0.146 0.578 -0.294 1.15 -0.44 1.729 c -0.645 2.529 -1.293 5.048 -1.946 7.554 c -0.146 0.558 -0.291 1.12 -0.438 1.677 a 1119.98 1119.98 0 0 1 -1.974 7.425 c -0.167 0.619 -0.336 1.235 -0.504 1.854 a 1336.5 1336.5 0 0 1 -2.239 8.149 c -0.417 1.495 -0.837 2.986 -1.257 4.47 c -0.211 0.742 -0.42 1.486 -0.631 2.225 a 996.473 996.473 0 0 1 -1.868 6.471 l -0.014 0.048 a 1003.73 1003.73 0 0 1 -3.611 12.079 l -0.165 0.533 a 955.592 955.592 0 0 1 -3.422 10.941 a 872.2 872.2 0 0 1 -2.725 8.375 l -0.399 1.211 c -0.833 2.51 -1.67 4.991 -2.512 7.445 l -0.563 1.628 a 770.915 770.915 0 0 1 -1.74 4.986 c -0.2 0.564 -0.399 1.133 -0.599 1.695 a 725.206 725.206 0 0 1 -2.235 6.2 c -0.203 0.556 -0.408 1.098 -0.612 1.65 c -0.424 1.149 -0.848 2.3 -1.274 3.433 c -0.229 0.607 -0.458 1.204 -0.687 1.808 c -0.393 1.039 -0.786 2.08 -1.181 3.105 c -0.252 0.656 -0.506 1.298 -0.758 1.948 c -0.392 1.003 -0.782 2.011 -1.174 3.004 a 550.799 550.799 0 0 1 -1.54 3.849 l -0.179 0.445 l -0.235 0.574 a 490.424 490.424 0 0 1 -1.515 3.688 c -0.223 0.539 -0.448 1.068 -0.672 1.601 c -0.354 0.843 -0.707 1.683 -1.061 2.513 c -0.308 0.726 -0.618 1.44 -0.927 2.156 c -0.296 0.683 -0.591 1.365 -0.887 2.04 a 403.103 403.103 0 0 1 -2.316 5.196 c -0.051 0.113 -0.103 0.223 -0.153 0.335 a 386.364 386.364 0 0 1 -3.162 6.757 c -0.208 0.431 -0.414 0.864 -0.621 1.289 c -0.14 0.287 -0.278 0.564 -0.417 0.85 a 317.671 317.671 0 0 1 -2.514 5.024 c -0.131 0.256 -0.262 0.517 -0.394 0.772 a 271.987 271.987 0 0 1 -3.666 6.858 c -0.197 0.355 -0.395 0.717 -0.592 1.067 a 211.557 211.557 0 0 1 -3.639 6.24 a 178.936 178.936 0 0 1 -2.3 3.667 c -0.095 0.146 -0.188 0.297 -0.283 0.441 a 136.663 136.663 0 0 1 -4.587 6.634 c -0.394 0.532 -0.782 1.027 -1.171 1.532 c -0.399 0.519 -0.8 1.048 -1.195 1.54 c -0.38 0.474 -0.754 0.913 -1.13 1.36 c -0.403 0.482 -0.809 0.973 -1.208 1.427 c -0.263 0.299 -0.521 0.574 -0.781 0.86 a 61.843 61.843 0 0 1 -1.383 1.483 a 53.15 53.15 0 0 1 -0.82 0.823 a 51.63 51.63 0 0 1 -2.129 1.994 a 40.32 40.32 0 0 1 -1.229 1.032 c -0.283 0.229 -0.565 0.461 -0.846 0.675 c -0.42 0.321 -0.835 0.612 -1.25 0.898 c -0.254 0.176 -0.511 0.363 -0.762 0.526 c -0.391 0.253 -0.775 0.467 -1.161 0.687 c -0.29 0.168 -0.583 0.35 -0.871 0.499 c -0.333 0.172 -0.659 0.307 -0.987 0.454 c -0.349 0.158 -0.7 0.329 -1.044 0.46 c -0.292 0.111 -0.576 0.188 -0.864 0.28 c -0.385 0.124 -0.771 0.252 -1.151 0.341 c -0.531 0.127 -1.059 0.225 -1.578 0.285 c -0.097 0.011 -0.193 0.015 -0.291 0.024 c -0.504 0.045 -1.003 0.06 -1.496 0.042 c -0.076 -0.003 -0.152 0.001 -0.228 -0.003 a 11.13 11.13 0 0 1 -1.921 -0.285 a 11.272 11.272 0 0 1 -1.536 -0.461 c 1.832 0.713 3.664 1.428 5.495 2.142 c -0.154 0.023 -0.311 0.07 -0.465 0.09 c -0.074 0.01 -0.148 0.013 -0.224 0.02 c -0.522 0.056 -1.039 0.074 -1.549 0.063 c -0.092 -0.003 -0.186 0.002 -0.277 -0.003 a 10.887 10.887 0 0 1 -1.942 -0.27 a 11.197 11.197 0 0 1 -1.607 -0.479 l 70.052 27.298 a 11.27 11.27 0 0 0 1.591 0.474 c 0.116 0.026 0.231 0.055 0.349 0.076 c 0.098 0.02 0.194 0.049 0.292 0.065 c 0.435 0.072 0.876 0.113 1.321 0.134 c 0.088 0.004 0.179 0 0.266 0.001 c 0.269 0.009 0.536 0.019 0.807 0.007 c 0.25 -0.012 0.502 -0.043 0.755 -0.067 c 0.073 -0.01 0.146 -0.012 0.219 -0.021 a 13.6 13.6 0 0 0 1.261 -0.212 c 0.1 -0.023 0.204 -0.067 0.304 -0.093 c 0.377 -0.092 0.761 -0.218 1.143 -0.343 c 0.224 -0.073 0.442 -0.116 0.667 -0.2 c 0.086 -0.031 0.174 -0.082 0.261 -0.116 c 0.332 -0.13 0.668 -0.291 1.004 -0.446 c 0.255 -0.118 0.507 -0.208 0.765 -0.339 c 0.094 -0.049 0.19 -0.114 0.284 -0.164 c 0.298 -0.157 0.6 -0.339 0.9 -0.516 c 0.263 -0.154 0.522 -0.283 0.789 -0.451 c 0.123 -0.079 0.249 -0.177 0.373 -0.259 c 0.277 -0.182 0.559 -0.382 0.839 -0.579 c 0.238 -0.169 0.473 -0.314 0.713 -0.493 c 0.17 -0.127 0.344 -0.281 0.516 -0.413 c 0.276 -0.214 0.555 -0.438 0.833 -0.667 c 0.189 -0.155 0.373 -0.289 0.563 -0.45 c 0.23 -0.198 0.467 -0.427 0.7 -0.633 c 0.279 -0.248 0.559 -0.497 0.84 -0.76 c 0.132 -0.124 0.262 -0.229 0.394 -0.355 c 0.313 -0.298 0.629 -0.633 0.944 -0.947 c 0.261 -0.262 0.521 -0.514 0.785 -0.788 c 0.081 -0.084 0.161 -0.158 0.243 -0.243 c 0.405 -0.427 0.815 -0.896 1.224 -1.351 c 0.247 -0.272 0.49 -0.529 0.737 -0.813 l 0.104 -0.112 c 0.462 -0.531 0.931 -1.111 1.397 -1.677 c 0.261 -0.317 0.517 -0.61 0.779 -0.936 c 0.018 -0.023 0.035 -0.041 0.053 -0.063 c 0.266 -0.334 0.538 -0.708 0.806 -1.053 c 0.523 -0.673 1.044 -1.336 1.572 -2.052 c 0.029 -0.039 0.058 -0.073 0.087 -0.112 c 0.666 -0.903 1.338 -1.855 2.013 -2.828 c 0.137 -0.196 0.272 -0.392 0.41 -0.592 c 0.131 -0.189 0.26 -0.372 0.391 -0.565 c 0.584 -0.859 1.173 -1.752 1.764 -2.664 c 0.136 -0.21 0.273 -0.431 0.409 -0.644 c 0.334 -0.52 0.667 -1.032 1.002 -1.568 a 195.651 195.651 0 0 0 3.181 -5.276 l 0.06 -0.099 c 0.537 -0.922 1.074 -1.865 1.613 -2.821 c 0.195 -0.348 0.391 -0.709 0.587 -1.062 c 0.305 -0.547 0.608 -1.086 0.911 -1.643 c 0.064 -0.12 0.13 -0.246 0.196 -0.365 c 0.357 -0.659 0.716 -1.332 1.074 -2.004 c 0.268 -0.506 0.536 -1.007 0.806 -1.52 c 0.34 -0.648 0.681 -1.311 1.021 -1.973 c 0.214 -0.419 0.431 -0.824 0.646 -1.248 c 0.074 -0.146 0.146 -0.296 0.22 -0.442 c 0.38 -0.745 0.756 -1.509 1.135 -2.27 c 0.277 -0.557 0.554 -1.109 0.829 -1.673 c 0.358 -0.73 0.716 -1.477 1.071 -2.219 c 0.253 -0.526 0.506 -1.039 0.759 -1.571 c 0.05 -0.104 0.1 -0.213 0.148 -0.318 c 0.165 -0.35 0.331 -0.708 0.497 -1.062 c 0.41 -0.874 0.818 -1.752 1.229 -2.643 c 0.263 -0.568 0.524 -1.145 0.785 -1.719 c 0.207 -0.459 0.416 -0.909 0.624 -1.372 c 0.095 -0.211 0.19 -0.433 0.286 -0.646 c 0.424 -0.946 0.848 -1.909 1.273 -2.875 c 0.178 -0.404 0.355 -0.798 0.533 -1.206 l 0.27 -0.624 c 0.237 -0.549 0.477 -1.106 0.714 -1.66 c 0.234 -0.547 0.469 -1.082 0.703 -1.635 c 0.133 -0.312 0.266 -0.634 0.397 -0.947 c 0.242 -0.571 0.482 -1.146 0.723 -1.724 c 0.18 -0.429 0.361 -0.852 0.541 -1.286 c 0.171 -0.411 0.34 -0.834 0.511 -1.247 c 0.243 -0.592 0.487 -1.183 0.729 -1.779 c 0.126 -0.308 0.251 -0.607 0.376 -0.917 c 0.221 -0.544 0.44 -1.1 0.661 -1.648 l 0.763 -1.908 l 0.261 -0.65 c 0.275 -0.698 0.552 -1.411 0.828 -2.117 c 0.231 -0.587 0.46 -1.169 0.689 -1.762 c 0.078 -0.2 0.157 -0.395 0.233 -0.595 c 0.249 -0.644 0.496 -1.304 0.744 -1.952 c 0.33 -0.863 0.661 -1.723 0.989 -2.595 c 0.069 -0.185 0.14 -0.364 0.21 -0.55 c 0.187 -0.498 0.373 -1.009 0.561 -1.51 c 0.396 -1.058 0.788 -2.116 1.185 -3.188 c 0.111 -0.303 0.223 -0.598 0.335 -0.901 c 0.166 -0.456 0.333 -0.929 0.498 -1.386 c 0.446 -1.226 0.892 -2.459 1.337 -3.701 c 0.149 -0.42 0.3 -0.826 0.449 -1.247 c 0.099 -0.273 0.194 -0.557 0.291 -0.832 a 711.612 711.612 0 0 0 2.256 -6.452 l 0.042 -0.116 l 0.005 -0.02 c 0.853 -2.475 1.7 -4.993 2.546 -7.533 c 0.095 -0.283 0.19 -0.558 0.285 -0.843 c 0.08 -0.24 0.158 -0.49 0.239 -0.729 a 968.246 968.246 0 0 0 2.711 -8.33 c 0.051 -0.162 0.104 -0.314 0.155 -0.476 c 0.29 -0.907 0.579 -1.829 0.867 -2.744 c 0.216 -0.683 0.432 -1.359 0.647 -2.044 c 0.438 -1.396 0.873 -2.808 1.309 -4.221 l 0.423 -1.361 l 0.157 -0.507 c 0.265 -0.867 0.529 -1.75 0.793 -2.623 c 0.315 -1.036 0.628 -2.067 0.94 -3.111 c 0.251 -0.834 0.499 -1.678 0.748 -2.519 c 0.365 -1.225 0.729 -2.448 1.091 -3.685 l 0.177 -0.596 c 0.155 -0.53 0.31 -1.072 0.463 -1.604 c 0.436 -1.499 0.87 -3.002 1.305 -4.516 a 1674.032 1674.032 0 0 0 2.328 -8.249 c 0.101 -0.357 0.197 -0.724 0.298 -1.081 c 0.572 -2.074 1.145 -4.161 1.715 -6.263 l 0.376 -1.387 c 0.687 -2.544 1.369 -5.11 2.047 -7.692 l 0.161 -0.607 c 0.438 -1.667 0.873 -3.341 1.307 -5.024 a 1287.93 1287.93 0 0 0 3.588 -14.274 c 0.074 -0.301 0.151 -0.597 0.225 -0.896 c 0.628 -2.561 1.237 -5.134 1.851 -7.706 c 0.307 -1.284 0.622 -2.56 0.923 -3.847 c 0.979 -4.15 1.94 -8.31 2.881 -12.481 l 0.039 -0.181 c 1.056 -4.679 2.087 -9.369 3.094 -14.065 c 0.297 -1.385 0.579 -2.772 0.872 -4.157 c 0.703 -3.327 1.402 -6.653 2.08 -9.985 c 0.076 -0.374 0.158 -0.746 0.233 -1.119 c 0.174 -0.856 0.33 -1.715 0.504 -2.573 a 1434.23 1434.23 0 0 0 3.564 -18.386 a 1340.923 1340.923 0 0 0 2.938 -16.22 c 0.027 -0.154 0.058 -0.309 0.085 -0.463 c 0.774 -4.458 1.526 -8.909 2.253 -13.35 c 0.181 -1.101 0.346 -2.196 0.523 -3.296 a 1213.48 1213.48 0 0 0 1.563 -9.872 c 0.264 -1.715 0.506 -3.417 0.761 -5.128 c 0.396 -2.656 0.801 -5.317 1.179 -7.962 c 0.282 -1.973 0.542 -3.931 0.813 -5.897 c 0.313 -2.264 0.637 -4.538 0.935 -6.792 c 0.015 -0.101 0.026 -0.2 0.038 -0.302 c 0.352 -2.657 0.677 -5.291 1.008 -7.932 c 0.212 -1.699 0.44 -3.409 0.645 -5.1 c 0.346 -2.857 0.662 -5.688 0.983 -8.523 c 0.167 -1.454 0.346 -2.922 0.505 -4.37 c 0.343 -3.131 0.655 -6.231 0.97 -9.332 c 0.114 -1.133 0.243 -2.281 0.353 -3.411 c 0.413 -4.217 0.798 -8.403 1.152 -12.556 c 5.639 -65.953 3.254 -115.345 -6.714 -139.068 z" style="stroke: none; stroke-width: 1; stroke-dasharray: none; stroke-linecap: butt; stroke-linejoin: miter; stroke-miterlimit: 10; fill: #b846b8; fill-rule: nonzero; opacity: 1;" transform="" stroke-linecap="round" />
  <path d="M 584.988 506.347 l -0.019 0.032 c -0.046 0.076 -0.086 0.154 -0.135 0.23 a 11.083 11.083 0 0 1 -1.216 1.556 c -0.376 0.406 -0.771 0.795 -1.209 1.146 l 58.665 -47.018 c 0.438 -0.352 0.833 -0.741 1.21 -1.145 c 0.079 -0.086 0.158 -0.17 0.235 -0.258 c 0.065 -0.075 0.139 -0.145 0.204 -0.224 c 0.28 -0.339 0.536 -0.703 0.776 -1.077 c 0.049 -0.075 0.089 -0.153 0.136 -0.23 c 0.14 -0.229 0.284 -0.457 0.409 -0.698 c 0.112 -0.219 0.213 -0.451 0.315 -0.681 c 0.029 -0.07 0.064 -0.135 0.095 -0.203 c 0.162 -0.387 0.313 -0.786 0.444 -1.201 c 0.03 -0.096 0.044 -0.207 0.074 -0.306 c 0.108 -0.374 0.191 -0.769 0.274 -1.164 c 0.049 -0.231 0.119 -0.439 0.16 -0.679 c 0.015 -0.092 0.017 -0.193 0.03 -0.285 c 0.052 -0.346 0.081 -0.71 0.114 -1.072 c 0.027 -0.288 0.073 -0.555 0.09 -0.854 c 0.006 -0.106 -0.004 -0.225 0 -0.333 c 0.013 -0.331 0.007 -0.677 0.003 -1.019 c -0.001 -0.309 0.017 -0.604 0.004 -0.923 c -0.007 -0.145 -0.027 -0.3 -0.036 -0.444 c -0.018 -0.337 -0.053 -0.683 -0.084 -1.026 c -0.026 -0.29 -0.035 -0.565 -0.07 -0.862 c -0.025 -0.21 -0.069 -0.437 -0.1 -0.649 a 30.901 30.901 0 0 0 -0.158 -1.045 c -0.04 -0.244 -0.064 -0.477 -0.111 -0.725 c -0.056 -0.305 -0.136 -0.63 -0.2 -0.939 c -0.075 -0.354 -0.147 -0.709 -0.231 -1.073 c -0.042 -0.181 -0.068 -0.353 -0.114 -0.536 c -0.102 -0.42 -0.233 -0.863 -0.349 -1.291 c -0.097 -0.361 -0.186 -0.711 -0.291 -1.077 c -0.033 -0.112 -0.056 -0.218 -0.089 -0.329 c -0.172 -0.585 -0.381 -1.194 -0.576 -1.796 c -0.104 -0.32 -0.193 -0.629 -0.305 -0.955 c -0.021 -0.059 -0.036 -0.115 -0.056 -0.175 c -0.244 -0.706 -0.526 -1.441 -0.803 -2.174 c -0.127 -0.34 -0.236 -0.667 -0.371 -1.01 c -0.012 -0.028 -0.02 -0.055 -0.029 -0.084 c -0.165 -0.421 -0.364 -0.868 -0.541 -1.296 c -0.309 -0.762 -0.612 -1.517 -0.953 -2.304 c -0.021 -0.046 -0.037 -0.092 -0.059 -0.14 a 126.401 126.401 0 0 0 -1.44 -3.152 l -0.31 -0.657 c -0.101 -0.207 -0.192 -0.409 -0.293 -0.617 a 149.75 149.75 0 0 0 -1.431 -2.865 c -0.108 -0.217 -0.226 -0.437 -0.337 -0.653 a 150.47 150.47 0 0 0 -0.866 -1.666 a 185.434 185.434 0 0 0 -2.959 -5.359 c -0.025 -0.044 -0.048 -0.088 -0.072 -0.133 a 233.086 233.086 0 0 0 -1.658 -2.84 c -0.165 -0.276 -0.338 -0.56 -0.503 -0.84 c -0.356 -0.59 -0.705 -1.18 -1.071 -1.778 c -0.078 -0.128 -0.163 -0.259 -0.241 -0.39 c -0.36 -0.588 -0.733 -1.184 -1.104 -1.78 c -0.333 -0.534 -0.665 -1.069 -1.007 -1.61 c -0.373 -0.588 -0.758 -1.183 -1.139 -1.775 c -0.266 -0.416 -0.523 -0.824 -0.795 -1.241 c -0.087 -0.137 -0.183 -0.276 -0.273 -0.414 c -0.482 -0.739 -0.979 -1.487 -1.479 -2.233 c -0.306 -0.462 -0.607 -0.921 -0.918 -1.387 c -0.545 -0.81 -1.106 -1.63 -1.671 -2.45 c -0.245 -0.362 -0.484 -0.718 -0.734 -1.08 l -0.15 -0.217 c -0.278 -0.401 -0.564 -0.809 -0.847 -1.212 c -0.518 -0.743 -1.037 -1.488 -1.569 -2.239 l -0.99 -1.388 c -0.32 -0.45 -0.635 -0.895 -0.96 -1.347 c -0.151 -0.209 -0.312 -0.425 -0.464 -0.635 c -0.594 -0.822 -1.202 -1.65 -1.811 -2.481 c -0.26 -0.354 -0.51 -0.703 -0.772 -1.059 a 61.8 61.8 0 0 1 -0.382 -0.512 c -0.381 -0.516 -0.771 -1.034 -1.158 -1.552 c -0.338 -0.453 -0.67 -0.903 -1.013 -1.356 c -0.198 -0.263 -0.401 -0.529 -0.602 -0.794 c -0.384 -0.508 -0.772 -1.02 -1.164 -1.531 c -0.277 -0.365 -0.549 -0.727 -0.831 -1.093 l -0.005 0.003 l 0.005 -0.003 c -0.261 -0.343 -0.532 -0.689 -0.799 -1.031 a 311.94 311.94 0 0 0 -1.202 -1.559 c -0.203 -0.262 -0.401 -0.521 -0.606 -0.784 c -0.369 -0.473 -0.749 -0.95 -1.121 -1.427 c -0.411 -0.521 -0.818 -1.044 -1.235 -1.569 c -0.148 -0.189 -0.293 -0.376 -0.444 -0.565 c -0.45 -0.569 -0.917 -1.147 -1.374 -1.721 c -0.42 -0.524 -0.836 -1.048 -1.261 -1.577 c -0.124 -0.152 -0.243 -0.304 -0.365 -0.457 c -0.406 -0.503 -0.824 -1.01 -1.234 -1.515 a 690.668 690.668 0 0 0 -1.843 -2.267 l -0.366 -0.449 c -0.318 -0.39 -0.649 -0.783 -0.972 -1.172 c -0.76 -0.923 -1.522 -1.847 -2.297 -2.776 c -0.182 -0.22 -0.358 -0.434 -0.539 -0.651 c -0.271 -0.322 -0.553 -0.652 -0.822 -0.975 c -0.916 -1.089 -1.837 -2.184 -2.771 -3.283 c -0.254 -0.299 -0.498 -0.592 -0.751 -0.891 c -0.171 -0.198 -0.349 -0.401 -0.518 -0.602 a 883.436 883.436 0 0 0 -4.467 -5.189 c -0.046 -0.05 -0.086 -0.101 -0.132 -0.15 l -0.022 -0.028 a 824.944 824.944 0 0 0 -5.201 -5.911 c -0.212 -0.241 -0.415 -0.477 -0.629 -0.718 l -0.545 -0.604 a 879.59 879.59 0 0 0 -5.851 -6.508 l -0.313 -0.345 c -0.173 -0.192 -0.358 -0.389 -0.533 -0.582 c -1.365 -1.498 -2.773 -3.015 -4.166 -4.524 l 6.499 21.853 l 13.689 46.044 l 0.128 0.428 l -0.247 0.072 l -0.062 0.25 l -0.433 -0.1 l -46.722 -11.166 l -28.868 -6.899 c 0.566 0.621 1.157 1.249 1.721 1.868 c 0.107 0.114 0.208 0.23 0.313 0.347 a 911.12 911.12 0 0 1 5.745 6.383 c 0.325 0.37 0.657 0.739 0.982 1.104 a 793.177 793.177 0 0 1 5.112 5.81 c 0.407 0.467 0.808 0.93 1.212 1.396 a 717.457 717.457 0 0 1 3.374 3.914 c 0.401 0.47 0.807 0.941 1.206 1.409 a 732.75 732.75 0 0 1 4.177 4.946 c 0.799 0.956 1.584 1.907 2.368 2.856 c 0.359 0.435 0.725 0.872 1.079 1.303 c 0.633 0.769 1.249 1.528 1.87 2.292 c 0.5 0.615 1.007 1.233 1.503 1.844 c 0.553 0.685 1.091 1.361 1.637 2.042 c 0.543 0.679 1.091 1.359 1.624 2.033 a 526.772 526.772 0 0 1 5.807 7.446 c 0.247 0.322 0.485 0.641 0.731 0.962 a 422.899 422.899 0 0 1 3.227 4.291 a 422.928 422.928 0 0 1 4.712 6.45 c 0.166 0.23 0.322 0.457 0.488 0.688 a 391.542 391.542 0 0 1 4.154 5.96 c 0.213 0.313 0.43 0.626 0.639 0.937 c 0.231 0.341 0.451 0.674 0.679 1.014 c 1.006 1.5 1.985 2.981 2.935 4.447 c 0.188 0.293 0.384 0.588 0.571 0.878 a 276.975 276.975 0 0 1 4.182 6.732 c 0.16 0.268 0.324 0.537 0.481 0.804 a 184.093 184.093 0 0 1 1.801 3.083 a 172.567 172.567 0 0 1 3.893 7.164 l 0.187 0.357 a 146.892 146.892 0 0 1 2.04 4.167 c 0.501 1.067 0.973 2.113 1.416 3.137 c 0.263 0.602 0.496 1.18 0.737 1.765 c 0.256 0.618 0.52 1.242 0.752 1.843 c 6.092 14.713 6.031 21.783 2.921 26.348 z" style="stroke: none; stroke-width: 1; stroke-dasharray: none; stroke-linecap: butt; stroke-linejoin: miter; stroke-miterlimit: 10; fill: #d1d127; fill-rule: nonzero; opacity: 1;" transform="" stroke-linecap="round" />
  <path d="M 131.102 355.708 l -0.019 -0.031 c -0.043 -0.077 -0.092 -0.152 -0.132 -0.231 c -0.251 -0.486 -0.46 -0.989 -0.636 -1.502 c -0.038 -0.108 -0.07 -0.219 -0.104 -0.33 a 11.14 11.14 0 0 1 -0.386 -1.62 l 11.386 74.314 c 0.085 0.555 0.223 1.092 0.386 1.62 c 0.035 0.111 0.067 0.223 0.106 0.332 c 0.032 0.095 0.056 0.193 0.091 0.289 c 0.154 0.413 0.34 0.815 0.545 1.211 c 0.04 0.08 0.089 0.153 0.132 0.231 c 0.128 0.236 0.253 0.474 0.399 0.703 c 0.133 0.208 0.284 0.41 0.432 0.614 c 0.045 0.062 0.085 0.124 0.129 0.184 c 0.253 0.335 0.523 0.665 0.817 0.986 c 0.069 0.074 0.158 0.142 0.228 0.216 c 0.27 0.282 0.57 0.551 0.871 0.82 c 0.175 0.157 0.322 0.324 0.508 0.479 c 0.071 0.059 0.159 0.111 0.231 0.169 c 0.273 0.217 0.575 0.426 0.872 0.635 c 0.236 0.168 0.444 0.343 0.693 0.505 c 0.091 0.058 0.197 0.108 0.289 0.168 c 0.28 0.175 0.583 0.343 0.88 0.512 c 0.269 0.151 0.515 0.314 0.798 0.463 c 0.128 0.067 0.273 0.126 0.404 0.191 c 0.3 0.151 0.615 0.295 0.93 0.44 c 0.264 0.121 0.507 0.252 0.781 0.371 c 0.195 0.082 0.412 0.156 0.612 0.238 c 0.32 0.131 0.65 0.26 0.985 0.385 c 0.232 0.087 0.445 0.182 0.684 0.267 c 0.292 0.104 0.613 0.196 0.914 0.296 c 0.345 0.112 0.687 0.228 1.044 0.336 c 0.179 0.055 0.34 0.116 0.523 0.169 c 0.413 0.122 0.863 0.229 1.292 0.344 c 0.359 0.097 0.708 0.194 1.078 0.286 c 0.113 0.027 0.216 0.061 0.33 0.088 c 0.592 0.144 1.224 0.269 1.843 0.4 c 0.33 0.068 0.642 0.146 0.979 0.212 c 0.062 0.012 0.119 0.027 0.181 0.039 c 0.733 0.143 1.512 0.266 2.283 0.393 c 0.358 0.06 0.695 0.128 1.06 0.184 c 0.03 0.004 0.057 0.011 0.087 0.015 c 0.447 0.068 0.934 0.12 1.393 0.181 c 0.814 0.114 1.62 0.229 2.471 0.327 c 0.052 0.004 0.1 0.014 0.151 0.02 a 133.496 133.496 0 0 0 4.174 0.387 c 0.229 0.019 0.45 0.039 0.681 0.056 c 1.04 0.075 2.109 0.14 3.196 0.195 c 0.242 0.014 0.491 0.021 0.735 0.033 c 0.621 0.03 1.237 0.06 1.875 0.083 c 0.76 0.026 1.53 0.052 2.313 0.069 c 1.246 0.028 2.519 0.043 3.81 0.048 c 0.051 0 0.1 0.001 0.15 0.004 a 227.44 227.44 0 0 0 3.289 -0.016 c 0.322 -0.004 0.654 -0.013 0.979 -0.017 c 0.689 -0.013 1.375 -0.02 2.075 -0.037 c 0.151 -0.003 0.306 -0.012 0.458 -0.015 c 0.69 -0.018 1.392 -0.044 2.093 -0.066 c 0.631 -0.021 1.259 -0.04 1.899 -0.067 c 0.694 -0.028 1.401 -0.063 2.107 -0.098 c 0.492 -0.023 0.975 -0.042 1.472 -0.068 c 0.162 -0.008 0.332 -0.02 0.495 -0.029 c 0.881 -0.047 1.777 -0.105 2.674 -0.162 c 0.553 -0.035 1.1 -0.066 1.659 -0.104 c 0.974 -0.066 1.966 -0.143 2.958 -0.22 c 0.437 -0.033 0.863 -0.061 1.303 -0.097 c 0.087 -0.007 0.176 -0.016 0.263 -0.022 c 0.486 -0.039 0.982 -0.085 1.472 -0.127 c 0.903 -0.077 1.807 -0.155 2.724 -0.24 l 1.696 -0.162 c 0.551 -0.055 1.093 -0.103 1.647 -0.158 c 0.257 -0.028 0.524 -0.058 0.782 -0.085 c 1.009 -0.104 2.03 -0.216 3.054 -0.327 c 0.438 -0.048 0.864 -0.09 1.304 -0.14 c 0.209 -0.025 0.423 -0.052 0.633 -0.074 c 0.637 -0.074 1.281 -0.151 1.923 -0.228 c 0.562 -0.066 1.116 -0.129 1.682 -0.198 l 0.987 -0.125 c 0.632 -0.078 1.27 -0.16 1.908 -0.242 c 0.456 -0.059 0.904 -0.112 1.363 -0.173 l -0.001 -0.005 l 0.001 0.005 c 0.426 -0.056 0.863 -0.117 1.293 -0.176 l 1.951 -0.263 l 0.981 -0.133 c 0.594 -0.084 1.198 -0.173 1.796 -0.258 c 0.658 -0.095 1.313 -0.188 1.976 -0.285 c 0.239 -0.034 0.474 -0.066 0.713 -0.103 c 0.719 -0.105 1.451 -0.22 2.176 -0.331 c 0.666 -0.1 1.327 -0.198 1.997 -0.303 l 0.578 -0.087 c 0.638 -0.1 1.287 -0.209 1.929 -0.311 c 0.958 -0.152 1.916 -0.306 2.885 -0.464 c 0.192 -0.031 0.38 -0.06 0.572 -0.092 c 0.496 -0.081 1.003 -0.172 1.5 -0.255 c 1.18 -0.197 2.361 -0.396 3.554 -0.602 l 0.834 -0.142 c 0.414 -0.072 0.839 -0.152 1.254 -0.225 a 712.47 712.47 0 0 0 4.229 -0.758 l 1.146 -0.206 c 0.258 -0.047 0.523 -0.1 0.78 -0.146 c 2.223 -0.413 4.461 -0.834 6.728 -1.274 c 0.066 -0.014 0.13 -0.023 0.196 -0.037 c 0.012 -0.002 0.023 -0.006 0.036 -0.007 a 823.86 823.86 0 0 0 7.72 -1.547 c 0.314 -0.063 0.62 -0.122 0.937 -0.188 c 0.262 -0.055 0.534 -0.114 0.797 -0.168 a 855.667 855.667 0 0 0 8.56 -1.815 c 0.153 -0.033 0.301 -0.063 0.455 -0.097 c 0.253 -0.055 0.516 -0.117 0.771 -0.171 c 1.979 -0.434 3.998 -0.896 6.002 -1.346 l -22.175 -5.298 l -46.72 -11.166 l -0.435 -0.104 l 0.06 -0.25 l -0.186 -0.178 l 0.305 -0.324 l 33.03 -34.879 l 20.41 -21.552 c -0.822 0.181 -1.66 0.378 -2.478 0.556 c -0.153 0.035 -0.304 0.065 -0.457 0.099 a 945.09 945.09 0 0 1 -8.401 1.784 c -0.483 0.098 -0.968 0.2 -1.448 0.3 c -2.551 0.523 -5.079 1.03 -7.586 1.521 c -0.607 0.12 -1.209 0.235 -1.814 0.352 c -1.703 0.33 -3.396 0.652 -5.077 0.965 c -0.609 0.112 -1.219 0.228 -1.823 0.34 c -2.142 0.394 -4.269 0.777 -6.374 1.145 c -1.228 0.215 -2.443 0.418 -3.657 0.623 c -0.555 0.094 -1.117 0.192 -1.668 0.284 c -0.981 0.162 -1.948 0.316 -2.919 0.474 c -0.783 0.125 -1.572 0.254 -2.349 0.378 c -0.869 0.136 -1.725 0.264 -2.587 0.397 c -0.859 0.129 -1.722 0.266 -2.572 0.391 c -3.172 0.468 -6.289 0.905 -9.352 1.304 c -0.403 0.053 -0.799 0.101 -1.199 0.152 a 483.36 483.36 0 0 1 -3.341 0.417 c -0.667 0.08 -1.327 0.156 -1.989 0.233 a 392.985 392.985 0 0 1 -7.943 0.855 c -0.283 0.029 -0.557 0.052 -0.839 0.079 a 392.879 392.879 0 0 1 -7.238 0.618 c -0.377 0.026 -0.756 0.059 -1.131 0.086 c -0.41 0.028 -0.81 0.053 -1.217 0.08 c -1.802 0.122 -3.575 0.229 -5.319 0.318 l -1.045 0.054 a 257.369 257.369 0 0 1 -7.922 0.257 c -0.312 0.004 -0.627 0.013 -0.938 0.016 a 194.711 194.711 0 0 1 -7.3 -0.031 a 170.597 170.597 0 0 1 -4.42 -0.161 c -0.133 -0.008 -0.271 -0.012 -0.403 -0.018 a 141.804 141.804 0 0 1 -4.629 -0.318 c -1.176 -0.1 -2.316 -0.214 -3.425 -0.34 c -0.653 -0.075 -1.27 -0.162 -1.898 -0.245 c -0.662 -0.089 -1.333 -0.172 -1.969 -0.271 c -15.793 -2.087 -21.885 -5.674 -24.282 -10.65 z" style="stroke: none; stroke-width: 1; stroke-dasharray: none; stroke-linecap: butt; stroke-linejoin: miter; stroke-miterlimit: 10; fill: #5e3702; fill-rule: nonzero; opacity: 1;" transform="" stroke-linecap="round" />
  <path d="M 488.501 37.946 l 0.036 -0.002 c 0.089 0.002 0.178 -0.003 0.267 0.002 c 0.547 0.025 1.085 0.095 1.617 0.2 c 0.114 0.022 0.226 0.049 0.339 0.075 c 0.539 0.123 1.073 0.271 1.597 0.476 l -70.051 -27.296 a 11.316 11.316 0 0 0 -1.597 -0.476 c -0.112 -0.025 -0.227 -0.053 -0.341 -0.074 c -0.099 -0.02 -0.195 -0.049 -0.296 -0.065 a 11.11 11.11 0 0 0 -1.321 -0.134 c -0.089 -0.004 -0.178 0 -0.267 -0.002 c -0.269 -0.007 -0.536 -0.017 -0.809 -0.005 c -0.247 0.011 -0.498 0.041 -0.748 0.067 c -0.075 0.008 -0.148 0.012 -0.224 0.021 c -0.417 0.052 -0.838 0.12 -1.263 0.214 c -0.099 0.021 -0.2 0.065 -0.301 0.09 c -0.379 0.092 -0.761 0.218 -1.146 0.344 c -0.224 0.074 -0.442 0.116 -0.669 0.201 c -0.086 0.032 -0.175 0.082 -0.261 0.116 c -0.325 0.128 -0.656 0.286 -0.985 0.437 c -0.263 0.121 -0.52 0.213 -0.785 0.349 c -0.095 0.049 -0.193 0.115 -0.289 0.166 c -0.292 0.155 -0.589 0.334 -0.883 0.507 c -0.267 0.156 -0.53 0.288 -0.801 0.459 c -0.123 0.077 -0.245 0.174 -0.367 0.254 c -0.281 0.184 -0.563 0.385 -0.847 0.585 c -0.238 0.167 -0.472 0.313 -0.712 0.492 c -0.168 0.126 -0.342 0.278 -0.512 0.41 c -0.274 0.212 -0.55 0.433 -0.825 0.661 c -0.192 0.157 -0.381 0.294 -0.574 0.458 c -0.235 0.201 -0.476 0.433 -0.713 0.644 c -0.271 0.241 -0.54 0.481 -0.813 0.735 c -0.137 0.127 -0.271 0.238 -0.408 0.369 c -0.312 0.297 -0.63 0.632 -0.944 0.948 c -0.263 0.263 -0.522 0.515 -0.786 0.789 c -0.081 0.085 -0.16 0.157 -0.241 0.243 c -0.42 0.441 -0.845 0.925 -1.268 1.396 c -0.225 0.25 -0.447 0.483 -0.674 0.742 c -0.041 0.047 -0.082 0.089 -0.123 0.136 c -0.49 0.564 -0.987 1.177 -1.482 1.781 c -0.23 0.28 -0.458 0.538 -0.689 0.827 c -0.018 0.024 -0.036 0.044 -0.056 0.067 c -0.281 0.353 -0.57 0.749 -0.854 1.116 c -0.504 0.649 -1.007 1.289 -1.517 1.978 c -0.03 0.042 -0.062 0.079 -0.092 0.121 c -0.665 0.903 -1.336 1.852 -2.011 2.823 l -0.413 0.598 c -0.129 0.189 -0.259 0.37 -0.389 0.562 c -0.586 0.863 -1.175 1.757 -1.767 2.67 c -0.132 0.203 -0.264 0.415 -0.396 0.62 c -0.336 0.524 -0.671 1.041 -1.01 1.582 c -0.403 0.645 -0.808 1.3 -1.215 1.968 a 206.008 206.008 0 0 0 -1.948 3.275 l -0.077 0.129 c -0.543 0.933 -1.088 1.886 -1.631 2.855 c -0.158 0.281 -0.317 0.572 -0.475 0.856 c -0.335 0.603 -0.67 1.201 -1.006 1.816 c -0.072 0.131 -0.144 0.271 -0.216 0.403 c -0.33 0.606 -0.659 1.227 -0.989 1.846 c -0.297 0.558 -0.595 1.112 -0.892 1.679 c -0.323 0.616 -0.646 1.246 -0.969 1.874 c -0.226 0.438 -0.452 0.864 -0.677 1.309 c -0.074 0.145 -0.148 0.297 -0.222 0.443 c -0.399 0.787 -0.797 1.592 -1.196 2.396 c -0.246 0.496 -0.493 0.986 -0.739 1.489 c -0.43 0.877 -0.859 1.774 -1.289 2.672 c -0.189 0.395 -0.379 0.778 -0.568 1.177 l -0.112 0.239 c -0.208 0.441 -0.417 0.893 -0.626 1.337 c -0.385 0.82 -0.77 1.644 -1.154 2.479 c -0.235 0.512 -0.471 1.032 -0.707 1.551 c -0.229 0.503 -0.457 0.997 -0.686 1.505 c -0.106 0.236 -0.213 0.483 -0.319 0.72 a 493.79 493.79 0 0 0 -1.243 2.809 c -0.177 0.402 -0.354 0.792 -0.531 1.199 c -0.084 0.192 -0.168 0.392 -0.252 0.585 c -0.255 0.588 -0.51 1.184 -0.765 1.779 c -0.223 0.52 -0.446 1.031 -0.669 1.555 c -0.128 0.303 -0.256 0.614 -0.385 0.917 c -0.248 0.587 -0.496 1.18 -0.744 1.773 c -0.177 0.424 -0.354 0.839 -0.532 1.267 l 0.005 0.002 v 0.001 l -0.005 -0.002 c -0.165 0.397 -0.33 0.806 -0.495 1.207 c -0.249 0.604 -0.499 1.21 -0.748 1.822 c -0.125 0.307 -0.25 0.606 -0.375 0.916 c -0.225 0.556 -0.45 1.125 -0.675 1.685 c -0.248 0.617 -0.495 1.23 -0.742 1.853 c -0.089 0.225 -0.179 0.443 -0.268 0.669 c -0.267 0.675 -0.535 1.367 -0.802 2.05 c -0.245 0.626 -0.491 1.248 -0.735 1.88 c -0.071 0.184 -0.143 0.361 -0.214 0.545 c -0.232 0.601 -0.463 1.219 -0.695 1.825 c -0.348 0.907 -0.695 1.812 -1.042 2.73 l -0.207 0.542 c -0.177 0.47 -0.353 0.954 -0.53 1.426 c -0.418 1.12 -0.836 2.243 -1.254 3.378 c -0.098 0.267 -0.197 0.526 -0.295 0.794 c -0.145 0.395 -0.288 0.803 -0.433 1.198 a 731.727 731.727 0 0 0 -1.458 4.041 c -0.131 0.369 -0.264 0.726 -0.395 1.096 c -0.087 0.247 -0.175 0.503 -0.263 0.75 a 834.395 834.395 0 0 0 -2.261 6.463 c -0.021 0.064 -0.044 0.125 -0.065 0.188 l -0.011 0.034 a 829.852 829.852 0 0 0 -2.521 7.46 c -0.102 0.304 -0.204 0.599 -0.305 0.904 c -0.085 0.254 -0.169 0.521 -0.253 0.775 a 844.8 844.8 0 0 0 -2.709 8.32 l -0.144 0.442 c -0.08 0.248 -0.157 0.506 -0.236 0.754 c -0.614 1.931 -1.224 3.91 -1.836 5.871 l 15.676 -16.555 l 33.029 -34.879 l 0.309 -0.324 l 0.186 0.177 l 0.248 -0.072 l 0.128 0.426 l 13.69 46.044 l 8.461 28.452 c 0.254 -0.802 0.503 -1.627 0.757 -2.424 l 0.144 -0.446 a 847.246 847.246 0 0 1 2.656 -8.167 l 0.463 -1.404 a 803.236 803.236 0 0 1 2.475 -7.332 c 0.2 -0.584 0.401 -1.165 0.604 -1.746 c 0.565 -1.64 1.134 -3.266 1.703 -4.879 c 0.206 -0.583 0.411 -1.168 0.617 -1.748 a 700.303 700.303 0 0 1 2.195 -6.092 c 0.429 -1.17 0.86 -2.324 1.29 -3.479 c 0.195 -0.527 0.392 -1.063 0.588 -1.586 c 0.35 -0.931 0.7 -1.845 1.05 -2.765 c 0.282 -0.741 0.564 -1.489 0.847 -2.223 c 0.316 -0.821 0.632 -1.626 0.949 -2.439 c 0.316 -0.81 0.631 -1.624 0.947 -2.424 c 1.18 -2.98 2.36 -5.898 3.546 -8.75 l 0.468 -1.114 c 0.438 -1.042 0.873 -2.078 1.31 -3.102 c 0.265 -0.619 0.528 -1.228 0.792 -1.84 c 0.315 -0.729 0.633 -1.458 0.948 -2.179 c 0.76 -1.735 1.521 -3.45 2.283 -5.127 c 0.117 -0.259 0.235 -0.507 0.353 -0.766 a 406.33 406.33 0 0 1 1.98 -4.262 c 0.368 -0.778 0.734 -1.552 1.103 -2.316 c 0.164 -0.34 0.327 -0.684 0.492 -1.021 c 0.179 -0.37 0.358 -0.728 0.538 -1.094 a 315.64 315.64 0 0 1 2.384 -4.765 c 0.159 -0.31 0.317 -0.626 0.476 -0.933 a 267.636 267.636 0 0 1 3.739 -6.989 l 0.454 -0.82 c 0.591 -1.052 1.18 -2.088 1.771 -3.101 a 195.849 195.849 0 0 1 1.908 -3.206 a 160.486 160.486 0 0 1 2.35 -3.747 l 0.217 -0.34 a 146.538 146.538 0 0 1 2.588 -3.851 c 0.675 -0.969 1.344 -1.899 2.007 -2.796 c 0.391 -0.528 0.775 -1.019 1.162 -1.521 c 0.407 -0.529 0.815 -1.068 1.219 -1.57 c 9.702 -12.634 15.856 -16.115 21.365 -15.703 z" style="stroke: none; stroke-width: 1; stroke-dasharray: none; stroke-linecap: butt; stroke-linejoin: miter; stroke-miterlimit: 10; fill: #2d4900; fill-rule: nonzero; opacity: 1;" transform="" stroke-linecap="round" />
  <path d="M 378 587.073 c -0.025 -0.018 -0.05 -0.04 -0.075 -0.058 a 17.62 17.62 0 0 1 -1.233 -0.999 c -0.063 -0.056 -0.124 -0.118 -0.186 -0.176 a 18.678 18.678 0 0 1 -0.886 -0.875 c -0.087 -0.092 -0.177 -0.167 -0.264 -0.261 l 0.03 0.012 c -3.525 -3.849 -6.533 -10.268 -9.064 -22.219 c -0.005 -0.026 -0.003 -0.048 -0.009 -0.075 c -6.667 -25.46 -8.231 -69.304 -3.211 -128.055 c 0.345 -4.043 0.72 -8.112 1.119 -12.203 c 0.013 -0.122 0.023 -0.241 0.035 -0.362 c 0.391 -3.988 0.809 -7.997 1.249 -12.022 l 0.075 -0.693 c 0.433 -3.94 0.892 -7.902 1.371 -11.875 c 0.039 -0.318 0.075 -0.635 0.113 -0.953 c 0.474 -3.903 0.971 -7.819 1.488 -11.746 l 0.153 -1.173 c 0.522 -3.95 1.068 -7.91 1.633 -11.878 l 0.18 -1.275 c 0.563 -3.931 1.149 -7.87 1.751 -11.815 c 0.072 -0.467 0.141 -0.934 0.213 -1.4 c 0.6 -3.899 1.22 -7.803 1.856 -11.707 c 0.085 -0.517 0.167 -1.035 0.253 -1.552 c 0.634 -3.864 1.288 -7.728 1.957 -11.591 l 0.256 -1.483 a 1361.661 1361.661 0 0 1 3.229 -17.823 l 0.232 -1.236 a 1410.655 1410.655 0 0 1 3.461 -17.713 l 0.275 -1.355 a 1411.844 1411.844 0 0 1 6.108 -28.535 l 0.146 -0.657 c 0.813 -3.604 1.642 -7.19 2.479 -10.761 l 0.34 -1.457 c 0.471 -1.993 0.95 -3.966 1.427 -5.947 l -20.836 -70.068 l -52.685 55.637 c -0.494 2.138 -0.997 4.271 -1.48 6.415 l -0.038 0.177 a 1346.137 1346.137 0 0 0 -3.097 14.086 c -0.299 1.393 -0.583 2.789 -0.877 4.184 a 1371.98 1371.98 0 0 0 -2.065 9.907 c -0.079 0.388 -0.164 0.775 -0.243 1.163 c -0.179 0.884 -0.341 1.768 -0.518 2.653 c -0.906 4.512 -1.789 9.025 -2.647 13.538 c -0.299 1.572 -0.599 3.141 -0.892 4.712 a 1386.043 1386.043 0 0 0 -3.034 16.746 l -0.006 0.037 c -0.233 1.336 -0.448 2.666 -0.677 4 c -0.529 3.099 -1.061 6.197 -1.566 9.286 c -0.229 1.396 -0.44 2.783 -0.664 4.177 c -0.483 3.012 -0.97 6.026 -1.431 9.026 c -0.242 1.584 -0.465 3.156 -0.702 4.735 c -0.418 2.796 -0.842 5.596 -1.24 8.378 c -0.25 1.744 -0.477 3.474 -0.719 5.211 c -0.344 2.485 -0.699 4.979 -1.026 7.45 c -0.015 0.111 -0.028 0.224 -0.042 0.335 c -0.32 2.417 -0.612 4.811 -0.916 7.214 c -0.244 1.938 -0.501 3.888 -0.735 5.816 c -0.304 2.512 -0.581 4.999 -0.867 7.496 c -0.206 1.798 -0.426 3.611 -0.622 5.4 c -0.292 2.66 -0.554 5.288 -0.823 7.927 c -0.164 1.599 -0.343 3.214 -0.498 4.806 c -0.412 4.209 -0.795 8.389 -1.149 12.533 c -5.635 65.953 -3.251 115.342 6.717 139.059 c 3.224 7.678 7.119 12.371 11.583 14.109 l 68.966 26.875 a 19.034 19.034 0 0 1 -1.672 -1.102 z" style="stroke: none; stroke-width: 1; stroke-dasharray: none; stroke-linecap: butt; stroke-linejoin: miter; stroke-miterlimit: 10; fill: #3e65c7; fill-rule: nonzero; opacity: 1;" transform="" stroke-linecap="round" />
  <path d="M 661.91 176.84 c -0.004 0.031 -0.01 0.063 -0.013 0.094 a 17.813 17.813 0 0 1 -0.249 1.568 c -0.017 0.083 -0.039 0.167 -0.06 0.249 c -0.089 0.397 -0.194 0.798 -0.313 1.204 c -0.036 0.122 -0.057 0.237 -0.095 0.359 c 0 -0.011 -0.003 -0.021 -0.003 -0.032 c -1.571 4.978 -5.627 10.792 -14.711 18.96 c -0.021 0.018 -0.039 0.027 -0.061 0.045 c -18.715 18.504 -55.903 41.78 -109.292 66.809 a 1040.521 1040.521 0 0 1 -11.128 5.132 c -0.112 0.051 -0.221 0.102 -0.333 0.152 a 1059.203 1059.203 0 0 1 -11.036 4.93 l -0.638 0.283 a 1129.277 1129.277 0 0 1 -10.968 4.75 l -0.882 0.378 c -3.619 1.541 -7.26 3.069 -10.917 4.585 c -0.364 0.151 -0.728 0.304 -1.094 0.454 c -3.681 1.522 -7.384 3.03 -11.101 4.524 l -1.195 0.482 a 1308.693 1308.693 0 0 1 -11.107 4.391 c -0.442 0.172 -0.88 0.345 -1.321 0.516 c -3.676 1.43 -7.366 2.844 -11.065 4.246 c -0.49 0.186 -0.981 0.373 -1.472 0.558 a 1380.798 1380.798 0 0 1 -11.015 4.1 l -1.413 0.521 a 1373.536 1373.536 0 0 1 -18.239 6.533 a 1410.445 1410.445 0 0 1 -18.381 6.297 c -4.302 1.44 -8.602 2.856 -12.896 4.248 l -1.451 0.471 a 1378.48 1378.48 0 0 1 -13.42 4.258 c -0.213 0.067 -0.428 0.137 -0.641 0.202 a 1257.913 1257.913 0 0 1 -10.559 3.233 l -1.431 0.435 c -1.961 0.591 -3.91 1.16 -5.863 1.737 l -50.263 53.079 l 74.525 17.809 c 2.099 -0.643 4.198 -1.273 6.295 -1.926 c 0.059 -0.019 0.115 -0.036 0.172 -0.056 a 1384.6 1384.6 0 0 0 13.748 -4.36 c 1.355 -0.438 2.707 -0.89 4.062 -1.332 c 3.208 -1.047 6.415 -2.097 9.613 -3.166 c 0.375 -0.125 0.752 -0.245 1.126 -0.371 c 0.855 -0.286 1.703 -0.588 2.558 -0.877 a 1592.365 1592.365 0 0 0 17.574 -6.06 a 1376.568 1376.568 0 0 0 15.849 -5.685 l 0.171 -0.062 l 0.035 -0.013 c 1.275 -0.468 2.533 -0.946 3.803 -1.414 c 2.948 -1.091 5.897 -2.181 8.825 -3.288 c 1.323 -0.499 2.629 -1.01 3.949 -1.513 c 2.85 -1.088 5.704 -2.172 8.532 -3.275 c 1.494 -0.582 2.966 -1.173 4.452 -1.758 c 2.63 -1.037 5.266 -2.069 7.875 -3.116 c 1.636 -0.656 3.248 -1.323 4.872 -1.983 c 2.324 -0.943 4.662 -1.884 6.966 -2.837 c 0.104 -0.042 0.207 -0.088 0.312 -0.13 c 2.251 -0.933 4.473 -1.876 6.706 -2.813 c 1.799 -0.758 3.615 -1.511 5.403 -2.272 c 2.326 -0.992 4.619 -1.996 6.926 -2.998 c 1.66 -0.722 3.341 -1.436 4.987 -2.161 c 2.449 -1.077 4.856 -2.165 7.275 -3.25 c 1.468 -0.657 2.954 -1.311 4.412 -1.972 c 3.851 -1.748 7.661 -3.506 11.428 -5.271 c 59.937 -28.098 101.516 -54.857 117.071 -75.348 c 5.036 -6.63 7.153 -12.35 6.427 -17.086 l -11.209 -73.164 c 0 0.658 -0.038 1.323 -0.114 1.997 z" style="stroke: none; stroke-width: 1; stroke-dasharray: none; stroke-linecap: butt; stroke-linejoin: miter; stroke-miterlimit: 10; fill: #fbb03b; fill-rule: nonzero; opacity: 1;" transform="" stroke-linecap="round" />
  <path d="M 164.678 136.086 c 0.029 -0.011 0.061 -0.022 0.088 -0.036 c 0.477 -0.206 0.966 -0.399 1.482 -0.568 c 0.079 -0.026 0.164 -0.049 0.245 -0.073 c 0.389 -0.122 0.79 -0.231 1.2 -0.33 c 0.123 -0.029 0.234 -0.07 0.358 -0.098 c -0.009 0.006 -0.017 0.013 -0.026 0.018 c 5.096 -1.128 12.159 -0.522 23.774 3.261 c 0.026 0.009 0.044 0.021 0.07 0.03 c 25.383 6.956 64.135 27.523 112.503 61.245 c 3.33 2.322 6.666 4.681 10.008 7.071 l 0.298 0.212 c 3.258 2.332 6.52 4.698 9.788 7.092 c 0.188 0.137 0.375 0.272 0.563 0.412 c 3.196 2.345 6.396 4.722 9.597 7.123 c 0.257 0.193 0.513 0.383 0.769 0.576 c 3.144 2.363 6.288 4.752 9.429 7.161 l 0.94 0.72 c 3.159 2.427 6.316 4.88 9.468 7.353 l 1.015 0.793 c 3.124 2.454 6.243 4.931 9.356 7.424 c 0.37 0.297 0.738 0.59 1.107 0.887 c 3.076 2.468 6.147 4.957 9.21 7.459 l 1.218 0.995 c 3.029 2.481 6.048 4.98 9.059 7.49 l 1.158 0.963 a 1383.618 1383.618 0 0 1 14.775 12.528 c 4.569 3.927 9.107 7.881 13.61 11.854 l 1.036 0.916 a 1440.469 1440.469 0 0 1 11.258 10.065 c 3.495 3.157 6.962 6.322 10.398 9.493 l 0.496 0.454 c 2.715 2.507 5.405 5.017 8.08 7.527 c 0.364 0.342 0.728 0.684 1.091 1.023 c 1.492 1.402 2.961 2.806 4.437 4.208 l 71.099 16.989 l -21.839 -73.444 c -1.606 -1.497 -3.201 -2.999 -4.816 -4.49 a 5.268 5.268 0 0 0 -0.135 -0.121 c -3.529 -3.259 -7.081 -6.5 -10.649 -9.726 c -1.058 -0.956 -2.123 -1.899 -3.184 -2.852 a 1375.106 1375.106 0 0 0 -7.548 -6.742 c -0.296 -0.263 -0.591 -0.529 -0.887 -0.79 c -0.675 -0.598 -1.36 -1.181 -2.038 -1.777 a 1400.877 1400.877 0 0 0 -14.034 -12.189 a 1381.49 1381.49 0 0 0 -12.847 -10.882 c -0.047 -0.041 -0.094 -0.079 -0.139 -0.119 l -0.028 -0.023 c -1.042 -0.87 -2.087 -1.72 -3.128 -2.586 c -2.419 -2.008 -4.834 -4.017 -7.259 -6 c -1.093 -0.896 -2.189 -1.771 -3.286 -2.662 c -2.366 -1.925 -4.732 -3.854 -7.101 -5.751 c -1.252 -1.004 -2.5 -1.983 -3.749 -2.977 c -2.212 -1.76 -4.425 -3.527 -6.637 -5.263 c -1.386 -1.088 -2.768 -2.151 -4.153 -3.228 c -1.979 -1.54 -3.962 -3.095 -5.939 -4.614 c -0.089 -0.07 -0.18 -0.136 -0.268 -0.205 c -1.934 -1.484 -3.862 -2.936 -5.79 -4.4 c -1.556 -1.179 -3.116 -2.377 -4.67 -3.544 c -2.022 -1.519 -4.039 -3.002 -6.059 -4.499 c -1.455 -1.078 -2.914 -2.176 -4.366 -3.239 c -2.157 -1.583 -4.302 -3.124 -6.452 -4.676 c -1.304 -0.942 -2.613 -1.904 -3.914 -2.835 c -3.439 -2.46 -6.867 -4.881 -10.279 -7.26 c -54.301 -37.858 -98.265 -60.487 -123.788 -63.713 c -8.26 -1.047 -14.271 -0.021 -18.009 2.977 c -19.253 15.43 -38.506 30.858 -57.759 46.29 a 19.721 19.721 0 0 1 1.793 -0.897 z" style="stroke: none; stroke-width: 1; stroke-dasharray: none; stroke-linecap: butt; stroke-linejoin: miter; stroke-miterlimit: 10; fill: #3c8cc2; fill-rule: nonzero; opacity: 1;" transform="" stroke-linecap="round" />
  <path d="M 387.166 277.218 c 0.813 -3.604 4.73 -21.089 5.567 -24.66 l 0.34 -1.457 c 0.471 -1.993 0.95 -3.966 1.427 -5.947 l -20.836 -70.068 l -52.685 55.637 c -0.494 2.138 -0.997 4.271 -1.48 6.415 l -0.038 0.177" style="stroke: none; stroke-width: 1; stroke-dasharray: none; stroke-linecap: butt; stroke-linejoin: miter; stroke-miterlimit: 10; fill: #3e65c7; fill-rule: nonzero; opacity: 1;" transform="" stroke-linecap="round" />
  <path d="M 384 292.51 a 1411.844 1411.844 0 0 1 6.108 -28.535 l 0.146 -0.657" style="stroke: none; stroke-width: 1; stroke-dasharray: none; stroke-linecap: butt; stroke-linejoin: miter; stroke-miterlimit: 10; fill: #3e65c7; fill-rule: nonzero; opacity: 1;" transform="" stroke-linecap="round" />
</g>
  <g transform="translate(297.4 193.22) scale(0.62 1.23)">
   <text font-family="Neuropol" font-size="40" font-weight="normal" style="stroke: none; stroke-width: 1; stroke-dasharray: none; stroke-linecap: butt; stroke-linejoin: miter; stroke-miterlimit: 10; fill: #020f0d; fill-rule: nonzero; opacity: 1;" ><tspan x="-392.73" y="8.98" style="stroke: none; stroke-width: 0; stroke-dasharray: none; stroke-linecap: butt; stroke-linejoin: miter; stroke-miterlimit: 4; fill: #020f0d; fill-rule: ; opacity: 1;">I</tspan><tspan x="-385.33" y="8.98" style="stroke: none; stroke-width: 0; stroke-dasharray: none; stroke-linecap: butt; stroke-linejoin: miter; stroke-miterlimit: 4; fill: #020f0d; fill-rule: ; opacity: 1;">N</tspan><tspan x="-352.7" y="8.98" style="stroke: none; stroke-width: 0; stroke-dasharray: none; stroke-linecap: butt; stroke-linejoin: miter; stroke-miterlimit: 4; fill: #020f0d; fill-rule: ; opacity: 1;">V</tspan><tspan x="-317.99" y="8.98" style="stroke: none; stroke-width: 0; stroke-dasharray: none; stroke-linecap: butt; stroke-linejoin: miter; stroke-miterlimit: 4; fill: #020f0d; fill-rule: ; opacity: 1;">E</tspan><tspan x="-289.49" y="8.98" style="stroke: none; stroke-width: 0; stroke-dasharray: none; stroke-linecap: butt; stroke-linejoin: miter; stroke-miterlimit: 4; fill: #020f0d; fill-rule: ; opacity: 1;">S</tspan><tspan x="-260.94" y="8.98" style="stroke: none; stroke-width: 0; stroke-dasharray: none; stroke-linecap: butt; stroke-linejoin: miter; stroke-miterlimit: 4; fill: #020f0d; fill-rule: ; opacity: 1;">T</tspan><tspan x="-233.79" y="8.98" style="stroke: none; stroke-width: 0; stroke-dasharray: none; stroke-linecap: butt; stroke-linejoin: miter; stroke-miterlimit: 4; fill: #020f0d; fill-rule: ; opacity: 1;">M</tspan><tspan x="-190.7" y="8.98" style="stroke: none; stroke-width: 0; stroke-dasharray: none; stroke-linecap: butt; stroke-linejoin: miter; stroke-miterlimit: 4; fill: #020f0d; fill-rule: ; opacity: 1;">E</tspan><tspan x="-162.21" y="8.98" style="stroke: none; stroke-width: 0; stroke-dasharray: none; stroke-linecap: butt; stroke-linejoin: miter; stroke-miterlimit: 4; fill: #020f0d; fill-rule: ; opacity: 1;">N</tspan><tspan x="-129.57" y="8.98" style="stroke: none; stroke-width: 0; stroke-dasharray: none; stroke-linecap: butt; stroke-linejoin: miter; stroke-miterlimit: 4; fill: #020f0d; fill-rule: ; opacity: 1;">T</tspan><tspan x="-102.42" y="8.98" style="stroke: none; stroke-width: 0; stroke-dasharray: none; stroke-linecap: butt; stroke-linejoin: miter; stroke-miterlimit: 4; fill: #020f0d; fill-rule: ; opacity: 1;"> </tspan><tspan x="-91.05" y="8.98" style="stroke: none; stroke-width: 0; stroke-dasharray: none; stroke-linecap: butt; stroke-linejoin: miter; stroke-miterlimit: 4; fill: #020f0d; fill-rule: ; opacity: 1;">I</tspan><tspan x="-83.65" y="8.98" style="stroke: none; stroke-width: 0; stroke-dasharray: none; stroke-linecap: butt; stroke-linejoin: miter; stroke-miterlimit: 4; fill: #020f0d; fill-rule: ; opacity: 1;">D</tspan><tspan x="-51.04" y="8.98" style="stroke: none; stroke-width: 0; stroke-dasharray: none; stroke-linecap: butt; stroke-linejoin: miter; stroke-miterlimit: 4; fill: #020f0d; fill-rule: ; opacity: 1;">E</tspan><tspan x="-22.54" y="8.98" style="stroke: none; stroke-width: 0; stroke-dasharray: none; stroke-linecap: butt; stroke-linejoin: miter; stroke-miterlimit: 4; fill: #020f0d; fill-rule: ; opacity: 1;">A</tspan><tspan x="12.07" y="8.98" style="stroke: none; stroke-width: 0; stroke-dasharray: none; stroke-linecap: butt; stroke-linejoin: miter; stroke-miterlimit: 4; fill: #020f0d; fill-rule: ; opacity: 1;"> </tspan><tspan x="23.44" y="8.98" style="stroke: none; stroke-width: 0; stroke-dasharray: none; stroke-linecap: butt; stroke-linejoin: miter; stroke-miterlimit: 4; fill: #020f0d; fill-rule: ; opacity: 1;">A</tspan><tspan x="58.05" y="8.98" style="stroke: none; stroke-width: 0; stroke-dasharray: none; stroke-linecap: butt; stroke-linejoin: miter; stroke-miterlimit: 4; fill: #020f0d; fill-rule: ; opacity: 1;">N</tspan><tspan x="90.68" y="8.98" style="stroke: none; stroke-width: 0; stroke-dasharray: none; stroke-linecap: butt; stroke-linejoin: miter; stroke-miterlimit: 4; fill: #020f0d; fill-rule: ; opacity: 1;">D</tspan><tspan x="123.3" y="8.98" style="stroke: none; stroke-width: 0; stroke-dasharray: none; stroke-linecap: butt; stroke-linejoin: miter; stroke-miterlimit: 4; fill: #020f0d; fill-rule: ; opacity: 1;"> </tspan><tspan x="134.67" y="8.98" style="stroke: none; stroke-width: 0; stroke-dasharray: none; stroke-linecap: butt; stroke-linejoin: miter; stroke-miterlimit: 4; fill: #020f0d; fill-rule: ; opacity: 1;">R</tspan><tspan x="166.54" y="8.98" style="stroke: none; stroke-width: 0; stroke-dasharray: none; stroke-linecap: butt; stroke-linejoin: miter; stroke-miterlimit: 4; fill: #020f0d; fill-rule: ; opacity: 1;">E</tspan><tspan x="195.04" y="8.98" style="stroke: none; stroke-width: 0; stroke-dasharray: none; stroke-linecap: butt; stroke-linejoin: miter; stroke-miterlimit: 4; fill: #020f0d; fill-rule: ; opacity: 1;">C</tspan><tspan x="224.8" y="8.98" style="stroke: none; stroke-width: 0; stroke-dasharray: none; stroke-linecap: butt; stroke-linejoin: miter; stroke-miterlimit: 4; fill: #020f0d; fill-rule: ; opacity: 1;">O</tspan><tspan x="256.56" y="8.98" style="stroke: none; stroke-width: 0; stroke-dasharray: none; stroke-linecap: butt; stroke-linejoin: miter; stroke-miterlimit: 4; fill: #020f0d; fill-rule: ; opacity: 1;">V</tspan><tspan x="291.27" y="8.98" style="stroke: none; stroke-width: 0; stroke-dasharray: none; stroke-linecap: butt; stroke-linejoin: miter; stroke-miterlimit: 4; fill: #020f0d; fill-rule: ; opacity: 1;">E</tspan><tspan x="319.77" y="8.98" style="stroke: none; stroke-width: 0; stroke-dasharray: none; stroke-linecap: butt; stroke-linejoin: miter; stroke-miterlimit: 4; fill: #020f0d; fill-rule: ; opacity: 1;">R</tspan><tspan x="351.64" y="8.98" style="stroke: none; stroke-width: 0; stroke-dasharray: none; stroke-linecap: butt; stroke-linejoin: miter; stroke-miterlimit: 4; fill: #020f0d; fill-rule: ; opacity: 1;">Y</tspan><tspan x="381.37" y="8.98" style="stroke: none; stroke-width: 0; stroke-dasharray: none; stroke-linecap: butt; stroke-linejoin: miter; stroke-miterlimit: 4; fill: #020f0d; fill-rule: ; opacity: 1;"> </tspan></text>
 </g>
</svg>